<svg width="60" height="60" viewBox="0 0 60 60" fill="none" xmlns="http://www.w3.org/2000/svg">
<path d="M50.4365 52.2422C39.1682 58.334 20.8325 58.334 9.56419 52.2422C4.2393 49.3631 1.30013 45.5719 1.2845 41.5663V30.3058C2.70656 32.8829 5.28761 35.2735 8.9339 37.2441C14.7419 40.3862 22.3705 41.9548 29.999 41.9548C37.6302 41.9548 45.2588 40.3862 51.0668 37.2441C54.7131 35.2735 57.2941 32.8816 58.7162 30.301V41.861H58.7097C58.5521 45.7545 55.6155 49.4423 50.4365 52.2422ZM48.7201 54.6511C38.3972 60.2314 21.6035 60.2314 11.2805 54.6511C10.5734 54.2675 9.91189 53.8692 9.29853 53.4539C15.061 56.4645 22.528 57.9771 29.999 57.9771C37.4726 57.9771 44.9423 56.4645 50.7048 53.4539C50.0888 53.8668 49.4272 54.2675 48.7201 54.6511ZM1.51761 23.5783C2.05543 27.5206 4.92558 30.9988 9.9171 33.6952C15.4542 36.6899 22.7273 38.1867 29.999 38.1867C37.2734 38.1867 44.5464 36.6899 50.0862 33.6952C55.0959 30.9878 57.9023 27.562 58.4622 23.5028C59.6186 28.1149 56.7302 32.8195 50.4365 36.221C39.1682 42.3141 20.8325 42.3141 9.56419 36.221C3.30429 32.8366 0.409394 28.1673 1.51761 23.5783ZM3.01259 20.91V24.6038C2.79641 23.8268 2.67791 23.0291 2.67791 22.2131V20.357C2.78209 20.5422 2.89668 20.7273 3.01259 20.91ZM10.5474 5.51239C15.91 2.61386 22.9552 1.16337 30.0016 1.16337C37.0455 1.16337 44.0906 2.61386 49.4533 5.51239C54.5242 8.25626 57.3202 11.8636 57.3267 15.6768L57.3241 15.7035C57.3202 19.5143 54.5242 23.124 49.4533 25.8655C38.7254 31.6638 21.2753 31.6638 10.5474 25.8655C5.47123 23.1204 2.67661 19.507 2.674 15.6926V15.6853C2.67661 11.8709 5.47123 8.25748 10.5474 5.51239ZM57.0337 20.8369C57.13 20.6834 57.2264 20.5288 57.3124 20.3729L57.311 21.6078V21.9658C57.311 22.7672 57.216 23.5466 57.0337 24.2993V20.8369ZM55.1493 23.1996C55.3668 22.9791 55.5725 22.7562 55.7705 22.5322V27.2319C55.583 27.5291 55.3733 27.8202 55.1493 28.1064V23.1996ZM53.2663 24.8412C53.4785 24.6781 53.6882 24.5161 53.8874 24.348V29.5106C53.6895 29.7018 53.4824 29.8918 53.2663 30.0781V24.8412ZM51.3858 26.131C51.5929 26.0043 51.8038 25.8764 52.0044 25.7437V31.0804C51.8038 31.2253 51.5981 31.3715 51.3858 31.5115V26.131ZM49.5028 27.1881C49.6981 27.0894 49.8961 26.992 50.0862 26.8885C50.0979 26.8824 50.1096 26.8739 50.124 26.8666V32.2934C49.9195 32.4128 49.715 32.5285 49.5028 32.6454V27.1881ZM47.6197 28.071C47.8294 27.9809 48.0338 27.8908 48.2409 27.7982V33.286C48.0364 33.3846 47.8294 33.4796 47.6197 33.5746V28.071ZM45.7367 28.8152C45.9463 28.7384 46.1508 28.6593 46.3579 28.5813V34.1141C46.1521 34.1957 45.9437 34.2749 45.7367 34.3516V28.8152ZM43.8536 29.4314C44.0607 29.3693 44.2691 29.3108 44.4735 29.2439V34.801C44.2677 34.8692 44.0633 34.9398 43.8536 35.0056V29.4314ZM41.9706 29.9575C42.1789 29.9052 42.3847 29.8455 42.5905 29.7907V35.3771C42.386 35.4343 42.1789 35.4903 41.9706 35.5451V29.9575ZM40.0901 30.3801C40.2959 30.3363 40.503 30.2961 40.71 30.2523V35.8532C40.503 35.8995 40.2959 35.9458 40.0901 35.9896V30.3801ZM38.2058 30.7284C38.4128 30.6931 38.6199 30.6554 38.827 30.62V36.2381C38.6199 36.2758 38.4128 36.3112 38.2058 36.3465V30.7284ZM36.3227 30.9927C36.5298 30.9684 36.7369 30.9416 36.9439 30.9148V36.5401C36.7369 36.5681 36.5298 36.5998 36.3227 36.6229V30.9927ZM34.4397 31.1876C34.6468 31.1705 34.8538 31.151 35.0609 31.1303V36.7691C34.8538 36.7886 34.6468 36.8056 34.4397 36.8239V31.1876ZM32.5566 31.3155C32.7663 31.3045 32.9708 31.2911 33.1778 31.2789V36.9189C32.9708 36.9323 32.7663 36.9469 32.5566 36.9579V31.3155ZM30.6762 31.3715C30.8833 31.3666 31.0903 31.3666 31.2948 31.3617V37.0041C31.0903 37.0114 30.8833 37.0114 30.6762 37.0127V31.3715ZM28.7489 31.3617C28.969 31.369 29.1929 31.369 29.4143 31.3715V37.0151C29.1929 37.0114 28.969 37.0114 28.7489 37.0066V31.3617ZM26.8671 31.2826C27.0716 31.2935 27.2786 31.3069 27.4857 31.3155V36.9579C27.2786 36.9493 27.0716 36.9335 26.8671 36.9225V31.2826ZM24.9841 31.1352C25.1885 31.1547 25.3982 31.1754 25.6053 31.1924V36.8288C25.3982 36.8105 25.1885 36.7934 24.9841 36.7715V31.1352ZM23.101 30.9221C23.3081 30.9477 23.5152 30.972 23.7222 30.9964V36.6302C23.5152 36.6035 23.3081 36.5754 23.101 36.5462V30.9221ZM21.218 30.6274C21.425 30.6639 21.6321 30.7016 21.8392 30.7345V36.3526C21.6321 36.3197 21.425 36.2819 21.218 36.2454V30.6274ZM19.3349 30.2608C19.542 30.3071 19.7491 30.3472 19.9561 30.3887V35.9982C19.7491 35.9543 19.542 35.9105 19.3349 35.8618V30.2608ZM17.4519 29.8029C17.6616 29.8589 17.866 29.9161 18.0731 29.9661V35.5561C17.866 35.5013 17.659 35.4477 17.4519 35.3905V29.8029ZM15.5714 29.2597C15.7759 29.323 15.9856 29.3827 16.1913 29.4448V35.019C15.983 34.952 15.7759 34.8838 15.5714 34.8156V29.2597ZM13.6884 28.5972C13.8955 28.6763 14.0999 28.7555 14.3083 28.831V34.3687C14.1012 34.2895 13.8929 34.2152 13.6884 34.1336V28.5972ZM11.8054 27.8177C12.0098 27.9103 12.2169 28.0004 12.4252 28.0881V33.5941C12.2169 33.5015 12.0098 33.4053 11.8054 33.3079V27.8177ZM9.9223 26.8909C10.1268 27.0005 10.3351 27.1041 10.5422 27.21V32.6697C10.3312 32.5552 10.1268 32.4359 9.9223 32.3178V26.8909ZM8.04056 25.7705C8.2411 25.902 8.44946 26.0299 8.65913 26.1602V31.5432C8.44816 31.3995 8.2411 31.257 8.04056 31.1109V25.7705ZM6.15751 24.3858C6.35806 24.5514 6.56641 24.7134 6.77868 24.8741V30.1207C6.56251 29.9356 6.35545 29.7481 6.15751 29.5593V24.3858ZM4.89563 23.241V28.1855C4.67165 27.9054 4.46329 27.6241 4.27446 27.3379V22.5809C4.4724 22.8025 4.67946 23.023 4.89563 23.241ZM59.9794 41.9925V26.1663C60.1057 24.2932 59.6538 22.3848 58.5846 20.5227L58.5755 20.5263L58.5872 15.7035C58.5872 15.6987 58.5899 15.695 58.5899 15.6902C58.5899 15.6853 58.5872 15.6816 58.5872 15.6768L58.5899 15.477H58.5794C58.4818 11.3009 55.4762 7.40619 50.0862 4.48938C39.0106 -1.49646 20.9901 -1.49646 9.9171 4.48938C4.52449 7.40619 1.52151 11.3009 1.42254 15.477H1.41082V15.6853C1.41082 15.6877 1.41082 15.6877 1.41082 15.6902V15.6926L1.41603 20.5239C0.346887 22.3885 -0.107597 24.2981 0.0213251 26.1736V41.9925H0.0330453C0.13462 44.0556 0.914666 46.0481 2.31458 47.8943L2.28072 47.9187L4.50756 50.6492C4.75499 50.9792 5.02065 51.3068 5.30714 51.6235L5.35402 51.6831L5.35663 51.6795C6.69924 53.1568 8.4716 54.4964 10.6503 55.6741C15.9856 58.5605 22.9929 60 29.999 60C37.0077 60 44.0151 58.558 49.3504 55.6741C52.1268 54.1737 54.2377 52.4163 55.639 50.4458L57.703 47.9187L57.6731 47.8968C59.0743 46.0481 59.8608 44.0532 59.965 41.9925H59.9794Z" fill="#FF914D"/>
</svg>
