<svg width="60" height="60" viewBox="0 0 60 60" fill="none" xmlns="http://www.w3.org/2000/svg">
<path d="M7.43459 35.0892C7.44256 35.0519 7.45584 35.0134 7.4678 34.9723C7.2951 33.877 7.30307 32.7406 7.24595 31.6325C7.04004 31.264 6.92713 30.8159 6.9351 30.265C6.95369 29.1029 6.63753 27.3823 7.16359 26.156C7.12241 23.3632 6.68668 20.8183 6.37184 18.0743C6.16992 16.3357 6.00387 14.6035 6.00387 12.8572C6.00387 9.83452 3.6087 10.3867 1.66654 10.4265C0.172053 11.7362 1.2348 14.9707 1.36366 16.5899C1.5058 18.3901 1.52174 20.1878 1.5058 21.9919C1.46462 25.9198 2.0199 29.6987 2.31747 33.6048C2.44101 35.1996 2.16603 39.5872 4.22377 40.2266C5.27057 40.5528 6.3187 40.7377 7.38942 40.8391C7.38942 39.7541 7.38942 38.6909 7.38942 37.674C7.38942 36.8535 7.19813 35.893 7.43459 35.0892ZM11.2219 41.9807C10.1977 41.9331 9.17882 41.8741 8.17319 41.7868C7.9447 43.9542 6.90454 46.1756 6.20977 48.2378C5.73287 49.6426 5.24799 51.1385 4.6927 52.5111C4.11882 53.9441 3.51173 54.9585 5.79796 54.6208C7.86633 50.5838 9.56672 46.1975 11.2219 41.9807ZM20.7096 22.1781C20.8039 22.0612 20.8929 21.9418 20.9833 21.8237C20.8039 19.4225 20.59 16.9867 20.0866 14.6292C19.8249 13.4067 19.8342 12.2087 19.4662 10.9966C19.1208 9.8602 18.2427 7.46288 17.0086 6.91588C16.9302 6.88378 16.8837 6.83627 16.8465 6.79004C16.804 6.80674 16.7642 6.82857 16.7216 6.84397C14.3159 7.88148 12.0509 8.36814 9.3834 8.60055C7.85437 8.73409 6.34129 9.06923 4.84016 9.42362C5.32105 9.50067 5.74482 9.67787 6.0477 10.0194C7.20211 11.3446 6.71325 12.5143 6.88594 14.1618C7.28049 17.8534 7.88492 21.4256 8.01511 25.1352C8.12936 25.062 8.25556 24.994 8.39106 24.9401C9.6544 24.4097 10.7078 23.8435 12.0814 23.5494C13.0472 23.3414 14.0369 23.2734 14.9987 23.0525C16.804 22.648 18.7502 22.5723 20.6166 22.3732C20.6299 22.3052 20.6565 22.2384 20.7096 22.1781ZM24.9792 43.0284C24.315 42.945 23.6494 42.8615 22.9918 42.7793C23.1167 43.5703 22.9998 44.5012 22.8869 45.2396C22.689 46.5544 22.5495 47.8603 22.3994 49.1816C22.3994 49.2009 22.3914 49.215 22.3874 49.2317C22.4485 49.2471 22.5149 49.2651 22.58 49.2792C22.7408 49.3023 22.9108 49.3126 23.0782 49.3164C23.2442 49.3241 23.4156 49.3203 23.5817 49.3203C23.5857 49.3061 23.5817 49.2946 23.5857 49.2792C23.8819 48.234 23.8739 47.0873 24.1675 46.0382C24.4292 45.0919 24.8835 44.0993 24.9553 43.1222C24.9553 43.0836 24.9712 43.058 24.9792 43.0284ZM37.6298 43.135C37.5023 40.3961 37.9566 37.769 38.2382 35.1071C33.7681 36.6711 28.4915 34.5191 23.931 34.4548C21.787 34.4215 19.5047 34.1891 17.3726 33.9605C15.1342 33.7204 12.8479 33.6703 10.6255 33.3108C10.397 33.2748 10.1751 33.2337 9.95329 33.1875C9.9161 33.2093 9.88554 33.2299 9.83772 33.2414C8.12139 33.6703 8.26353 35.7492 8.26353 37.082C8.26353 38.1247 8.26353 40.0328 8.26353 40.9021C8.62353 40.9239 8.98487 40.9367 9.34886 40.9444C12.6274 41.0035 15.894 41.2577 19.1593 41.4991C22.5614 41.7444 26.0074 42.0705 29.371 42.6445C32.1686 43.1222 34.8441 43.058 37.6298 43.135ZM38.3246 34.1711C38.3472 33.9348 38.3631 33.6947 38.3777 33.4533C37.2486 33.6048 36.0463 33.678 34.9358 33.678C33.5794 33.678 32.2656 33.1156 30.9252 33.1156C28.2856 33.1156 25.6275 32.6752 22.9852 32.4826C20.2221 32.2733 17.3766 32.435 14.6307 32.1205C13.7526 32.0216 12.7948 32.1089 11.938 31.9022C10.7915 31.6274 9.35284 31.3654 8.12936 31.2524C9.17882 32.8755 12.5544 32.6289 14.2415 32.7805C17.8893 33.1117 21.5253 33.4019 25.1731 33.7204C29.2089 34.0658 34.4283 35.8224 38.3246 34.1711ZM38.4335 31.8007C38.4335 30.4178 38.5305 29.0452 38.67 27.6699C36.6136 27.8985 34.5147 27.408 32.4569 27.408C29.1903 27.408 25.925 27.408 22.6584 27.408C20.327 27.408 17.9717 27.1538 15.6748 26.7403C13.366 26.3217 10.0662 26.0174 7.90219 26.9984C7.88891 27.0061 7.87695 27.0022 7.85836 27.0061C7.60994 27.9961 7.75341 29.4201 7.8092 30.265C7.8092 30.3087 7.82382 30.342 7.8278 30.3806C10.114 30.559 12.3086 31.2345 14.6307 31.2768C17.1879 31.3218 20.0348 31.1073 22.5535 31.5542C25.294 32.0408 28.1727 31.9612 30.9252 32.2694C33.4705 32.557 35.859 32.9589 38.4202 32.5994C38.4295 32.3336 38.4335 32.0665 38.4335 31.8007ZM38.7696 26.7827C38.8918 25.7387 39.0313 24.6987 39.1774 23.6547C36.2004 23.3825 33.3098 22.9434 30.3022 23.0487C27.389 23.1539 24.5873 23.5404 21.7498 23.0589C21.7126 23.0705 21.6887 23.0885 21.6448 23.0962C18.4127 23.5199 14.7662 23.5019 11.6617 24.5035C10.7039 24.8129 9.41528 25.1673 8.58368 25.8736C10.1446 25.4806 11.9061 25.5384 13.4378 25.6835C15.7984 25.898 18.4167 25.9455 20.695 26.5503C22.2519 26.965 24.307 26.5631 25.8985 26.5631C27.5988 26.5631 29.2992 26.5631 31.001 26.5631C33.5316 26.5631 36.2522 27.1756 38.7696 26.7827ZM41.8436 11.4832C41.9446 11.3009 42.0934 11.1481 42.278 11.0223C40.9695 10.9247 39.8456 10.6717 38.5916 10.6371C36.9377 10.5998 35.232 10.6114 33.5794 10.6448C32.1726 10.6756 30.795 10.6371 29.3962 10.4984C28.4955 10.4085 27.114 10.5446 26.2611 10.1607C23.5896 8.93826 25.3511 12.2344 24.8742 13.5711C24.4505 14.7499 24.1223 15.7989 24.0054 17.0509C23.8181 19.063 22.9998 20.5897 21.876 22.0779C21.8799 22.1267 21.8839 22.1742 21.8892 22.2243C24.9181 22.7495 27.9256 22.1948 31.001 22.1948C33.8504 22.1948 36.4741 22.5684 39.2943 22.8227C39.3727 22.2461 39.4524 21.6722 39.5228 21.0956C39.924 17.9253 40.3146 14.3492 41.8436 11.4832ZM44.8313 59.1535C44.8246 59.0482 44.8738 58.9583 44.9482 58.8993C44.1179 54.1367 42.9024 49.2355 42.5955 44.4229C41.6776 44.387 40.7503 44.2727 39.8271 44.1751C40.0675 44.8685 40.1472 45.6543 40.304 46.3528C40.6865 48.0349 41.0837 49.7119 41.4756 51.3914C42.0575 53.8568 42.9276 56.4198 43.2212 58.9365C43.4191 58.9891 43.6011 59.07 43.803 59.1034C43.9558 59.124 44.1139 59.115 44.2693 59.1278C44.4327 59.1394 44.5948 59.1574 44.7608 59.1535C44.7821 59.1535 44.8047 59.1535 44.8313 59.1535ZM47.6887 15.076C47.8043 14.0822 48.7209 12.3102 47.4894 11.6938C45.7824 11.1353 42.7855 11.1853 42.1319 12.8649C41.6032 14.235 41.3508 15.7617 41.0519 17.1998C40.5139 19.7653 40.025 22.6018 39.9626 25.2225C39.92 26.9611 39.2744 28.6458 39.2983 30.4281C39.3169 31.7827 39.3568 33.158 39.2744 34.5152C39.0845 37.4197 38.3737 40.1933 38.5039 43.1594C38.5092 43.1594 38.5132 43.1594 38.5212 43.1594C40.203 43.2287 41.9525 43.7514 43.633 43.6204C43.8774 43.605 44.1219 43.5703 44.3623 43.5292C44.988 38.176 45.898 32.8459 46.2686 27.4414C46.3789 25.8646 46.6671 24.1915 46.6671 22.6172C46.6671 21.4693 47.2796 20.3111 47.253 19.1644C47.2171 17.7738 47.528 16.4512 47.6887 15.076ZM53.3651 52.5625C53.5232 52.5625 53.9323 52.5034 54.1608 52.3879C52.7394 49.1302 52.1894 45.5272 50.9248 42.2092C50.2951 42.502 49.6521 42.7845 48.9985 43.0464C49.955 46.2591 51.6913 49.2432 52.7607 52.4238C52.7872 52.4521 52.8138 52.4816 52.8284 52.515C52.8364 52.5214 52.8364 52.5214 52.8443 52.5214C52.8882 52.5291 52.9373 52.5381 52.9852 52.5419C53.1114 52.5535 53.2376 52.5625 53.3651 52.5625ZM53.838 10.3032C55.5025 10.0528 57.3823 9.8204 58.7731 8.83296C57.9083 6.62954 52.495 8.24102 50.7933 8.65063C49.0145 9.08078 46.8584 9.63164 45.0571 10.4984C45.7519 10.5241 46.4533 10.6152 47.055 10.7385C47.1255 10.7167 47.2038 10.7051 47.2955 10.7269C47.6369 10.8027 47.9172 10.908 48.1497 11.039C48.2188 11.0685 48.2892 11.0942 48.3463 11.1199C48.4725 11.1738 48.5376 11.2624 48.5602 11.3561C48.6651 11.4653 48.7515 11.5847 48.8219 11.7118C50.4266 11.0004 52.0925 10.5613 53.838 10.3032ZM58.9179 7.57203C58.7944 7.07253 58.6217 6.60386 58.3666 6.16856C56.722 3.36164 53.6507 2.54498 50.5621 2.0121C48.1616 1.59479 45.7093 1.23911 43.2438 1.01055C39.3608 0.651012 35.4339 0.606071 31.608 1.11199C28.7971 1.48436 26.4232 2.12767 23.8075 3.20498C21.682 4.08456 19.7983 5.35191 17.7618 6.35989C18.7874 7.01732 19.4104 8.48113 19.8647 9.50837C20.4545 10.8399 20.6724 12.1214 20.7999 13.53C21.0098 15.9337 21.4681 18.3221 21.7458 20.7399C22.3515 19.7653 22.7859 18.733 23.0344 17.5016C23.2363 16.4962 23.1167 15.2917 23.6029 14.3544C24.4863 12.6376 23.5365 11.229 23.939 9.55845C24.036 9.15269 24.7082 8.98833 25.0576 8.89075C25.3764 8.80343 25.7709 9.00246 26.0512 9.12701C27.4554 9.77032 27.8087 9.25028 28.9419 9.52507C30.4536 9.8923 32.0544 9.81654 33.598 9.80114C35.4871 9.77931 37.3881 9.78701 39.2744 9.86405C40.5936 9.91798 41.9326 10.2146 43.2438 10.2146C43.3607 10.2146 43.443 10.2814 43.5015 10.3713C44.6174 9.64833 45.8794 9.10775 47.2078 8.89075C48.9361 8.61211 50.509 7.67475 52.2811 7.45775C54.1688 7.23047 57.3265 6.16856 58.9179 7.57203ZM58.2311 16.3241C58.445 14.3544 59.1185 11.8813 59.1358 9.61752C56.3421 11.5333 52.1496 11.1314 49.0543 12.531C49.154 13.7367 48.511 15.284 48.3463 16.4885C47.9398 19.4353 47.4044 22.5338 47.253 25.5063C46.9421 31.5003 45.9578 37.3863 45.263 43.3263C46.2726 43.0503 47.261 42.6407 48.2188 42.2773C49.6601 41.7277 51.3113 41.2654 52.6185 40.4436C54.1914 39.4562 54.5673 37.6778 54.8822 35.9944C56.0937 29.4843 57.5098 22.8971 58.2311 16.3241ZM59.9023 8.49012C60.0152 8.6288 60.0458 8.81884 59.9103 8.98448C59.9621 11.8928 59.2979 14.9322 58.9179 17.7918C58.5579 20.5178 58.0877 23.2695 57.5975 25.9789C56.9811 29.379 56.4657 32.8459 55.727 36.2191C55.3245 38.0412 54.9433 40.2189 53.0582 41.173C52.6305 41.3926 52.1801 41.6173 51.7165 41.8381C53.0157 45.1856 53.5192 48.8554 54.9871 52.14C54.9991 52.1696 54.9991 52.1953 55.0097 52.2235C55.1266 52.3429 55.1797 52.5214 55.0615 52.7063C54.8078 53.0992 54.5222 53.0915 54.1263 53.2597C53.842 53.3817 53.5391 53.4177 53.2336 53.4035C52.8324 53.3856 52.1456 53.3355 52.0101 52.9015C52.0101 52.8963 52.0061 52.8925 52.0061 52.8886C50.9473 49.6503 49.1673 46.6148 48.1842 43.3623C47.1706 43.7398 46.1504 44.0518 45.1846 44.2521C44.6174 44.369 44.0435 44.4191 43.4696 44.4332C43.7805 49.2792 45.0345 54.2163 45.8488 59.0007C45.8754 59.1458 45.8302 59.2588 45.7558 59.3525C45.7479 59.7634 45.2749 59.9894 44.8432 59.9997C44.5908 60.0035 44.3397 59.9702 44.0873 59.9599C43.916 59.956 43.738 59.9599 43.5706 59.9149C43.3872 59.8687 43.2132 59.7673 43.0246 59.7493C42.8306 59.7275 42.7097 59.6145 42.654 59.4784C42.5078 59.4193 42.3869 59.3025 42.3683 59.115C42.0934 56.5109 41.1409 53.7772 40.5364 51.2001C40.1724 49.6631 39.8111 48.1223 39.4604 46.5763C39.2864 45.7981 39.216 44.7966 38.84 44.0775C38.2502 44.0274 37.6644 43.994 37.0785 44.0056C33.3058 44.0698 29.5662 43.6165 25.8241 43.1401C25.7444 44.2342 25.1585 45.1985 25.0111 46.263C24.8583 47.33 24.7228 48.4702 24.4239 49.5052C24.408 49.5694 24.3774 49.6246 24.3402 49.667C24.3814 49.8994 24.2499 50.1652 23.931 50.1652C23.3306 50.169 21.4788 50.3437 21.5253 49.3922C21.5306 49.3703 21.5385 49.3549 21.5439 49.3331C21.5306 49.2869 21.5213 49.2394 21.5253 49.1816C21.6302 48.2417 21.6302 47.3236 21.8175 46.3901C22.042 45.3038 22.3874 43.7835 22.0686 42.6702C20.5289 42.4879 18.9906 42.3273 17.443 42.2298C15.6934 42.1168 13.9133 42.0782 12.1386 42.0153C10.4116 46.4235 8.6315 51.0332 6.4542 55.2436C6.35723 55.4323 6.17922 55.4798 6.01848 55.4426C5.05005 55.5813 3.80797 55.6147 3.14375 54.834C2.65489 54.2574 3.82657 52.2376 4.03646 51.6714C4.64887 50.0214 5.23072 48.3393 5.80194 46.6738C6.34926 45.0919 7.14897 43.3623 7.31104 41.6969C7.22735 41.6892 7.141 41.6815 7.05864 41.6712C5.50438 41.4863 3.28058 41.3412 2.34802 39.9429C1.73562 39.0171 1.78078 37.1154 1.66255 36.0445C1.4872 34.4215 1.44868 32.7869 1.22816 31.1715C0.818999 28.0873 0.605122 25.0993 0.630362 21.9919C0.642318 20.1955 0.683499 18.3786 0.490877 16.5899C0.330137 15.1017 -0.153412 13.4029 0.0485092 11.8967C0.271686 10.2185 0.769847 9.4416 2.53799 9.10133C6.19915 8.25771 9.82975 7.57716 13.5866 7.1239C15.728 6.8658 18.0886 5.23121 19.8993 4.14876C21.6661 3.0907 23.6202 2.2702 25.5663 1.56525C28.9618 0.33 32.6363 0 36.2469 0C40.9124 0 45.3547 0.254241 49.955 1.05292C54.2219 1.78996 59.5941 3.23066 59.8983 8.32063C59.8983 8.37584 59.8983 8.43362 59.9023 8.49012Z" fill="#FF914D"/>
</svg>
