<svg width="60" height="60" viewBox="0 0 60 60" fill="none" xmlns="http://www.w3.org/2000/svg">
<path fill-rule="evenodd" clip-rule="evenodd" d="M45.624 29.8869C45.624 30.2411 45.3124 30.4572 44.744 30.714C46.8378 30.1187 48.2474 29.3861 48.6875 28.5831C48.4222 31.3984 47.6179 33.9744 46.3241 36.3362C46.7368 34.4455 47.2842 32.5937 47.1505 30.5415C44.505 32.4165 37.8213 33.2502 29.4405 33.2502C24.4485 33.2502 19.9008 32.7736 16.4784 31.9918C16.2826 34.4891 16.8089 37.5473 17.8416 40.9941C15.8257 37.8236 14.3392 34.5206 13.3781 31.084C12.9033 30.905 12.4738 30.7168 12.0969 30.523C12.5759 35.0983 16.3036 39.8674 17.589 46.2157C17.7111 46.8184 18.1564 47.3303 18.848 47.7615C18.7312 45.6964 18.069 43.2687 17.0142 40.5823C18.9723 43.1843 20.4956 45.9292 21.583 48.8168C28.8952 50.6194 43.7365 49.1664 45.224 46.3789C43.7744 51.6543 17.3942 52.3934 16.3426 47.0048C16.0583 45.549 15.6909 44.2062 15.2762 42.9479C9.67357 42.921 -4.05603 36.9733 1.16126 30.3793C2.54349 28.635 5.53006 27.4156 10.6452 27.3628C13.3834 24.3407 21.0924 23.3299 28.2257 23.2428C28.611 14.375 21.5367 10.6417 28.3046 0.120549C23.9695 10.5963 31.9123 13.8622 28.9721 23.2381C29.8153 23.2363 30.647 23.2456 31.4586 23.2669C31.7092 23.2724 31.9608 23.2808 32.2124 23.2882C32.5524 14.4742 25.537 10.7307 32.2881 0.242025C27.9594 10.7001 35.8663 13.9726 32.9682 23.3114C33.9062 23.3429 34.8357 23.3828 35.7621 23.4403C36.3348 14.3416 29.01 10.6435 35.8579 0C31.466 10.6092 39.6698 13.8233 36.4032 23.4811C40.4604 23.7639 44.4134 24.3824 48.2685 25.9273C43.9755 24.706 40.2909 24.2053 36.2095 24.0319C35.9969 24.6022 35.7442 25.1947 35.4453 25.8151C35.5716 25.1892 35.6579 24.5901 35.7148 24.0124C34.7578 23.9772 33.7746 23.9605 32.7566 23.9549C32.5208 24.6235 32.2302 25.3218 31.8755 26.0562C32.0218 25.3218 32.1197 24.6235 32.1723 23.9522H31.4365C30.5522 23.9559 29.6384 23.9744 28.7089 24.0069C28.4857 24.6235 28.2162 25.2643 27.8941 25.9356C28.0278 25.2736 28.1183 24.6384 28.172 24.0291C20.8503 24.3444 12.8991 25.6333 12.8991 28.0434C12.8991 30.3663 20.9461 32.2496 30.868 32.2496C35.3284 32.2496 39.4098 31.8694 42.5522 31.2389C43.5912 30.919 44.1829 30.5517 44.1829 30.1604C44.1829 29.0143 38.4803 28.3253 37.6181 28.227C35.74 28.0397 35.4716 28.0202 30.9007 27.9136C26.3308 27.806 17.7974 28.8891 17.6227 30.1039C17.5848 30.0334 17.5627 29.9601 17.5627 29.8869C17.5627 28.5766 23.8453 27.513 31.5934 27.513C33.7883 27.513 35.8663 27.5974 37.717 27.7494C38.7477 27.8255 45.624 28.3967 45.624 29.8869ZM31.986 29.8377C28.7078 29.8377 26.0518 30.4043 26.0518 30.842C26.0518 31.2769 26.9319 31.4067 28.3015 31.5912C24.9444 30.2207 33.0956 29.8294 37.7876 30.5239C35.8474 29.9777 33.9767 29.8377 31.986 29.8377ZM32.1587 29.0959C27.3561 29.0959 23.4621 29.9277 23.4621 30.5684C23.4621 31.2073 24.7517 31.3956 26.7603 31.6654C21.843 29.6578 33.782 29.0848 40.6583 30.1011C37.816 29.3017 35.0779 29.0959 32.1587 29.0959ZM59.9158 48.0462C59.9705 48.3225 60 48.6007 60 48.8826C60 55.0213 46.6883 60 30.2764 60C13.8624 60 0.550686 55.0213 0.550686 48.8826C0.550686 48.2724 0.685434 47.6725 0.938087 47.0883C0.938087 47.1217 0.933876 47.156 0.933876 47.1894C0.933876 53.4533 14.1603 58.5349 30.4669 58.5349C46.0241 58.5349 58.7746 53.9114 59.9158 48.0462ZM49.7318 46.4698C49.7686 46.6256 49.7875 46.7813 49.7875 46.939C49.7875 50.3839 41.3026 53.1779 30.8417 53.1779C20.3808 53.1779 11.8969 50.3839 11.8969 46.939C11.8969 46.5959 11.9822 46.2602 12.1433 45.9338C12.1433 45.9505 12.1412 45.97 12.1412 45.9885C12.1412 49.5048 20.5714 52.3563 30.9638 52.3563C40.8805 52.3563 49.0064 49.7598 49.7318 46.4698ZM31.5165 28.176C25.1328 28.176 19.9555 29.2813 19.9555 30.1326C19.9555 30.9829 21.6714 31.2324 24.3422 31.5912C17.8027 28.9225 33.6746 28.1612 42.8143 29.5132C39.0393 28.4496 35.3968 28.176 31.5165 28.176ZM46.1104 37.3257C44.8082 40.229 44.4229 42.2598 44.9871 45.2485C45.0956 42.6057 45.4872 39.9648 46.1104 37.3257ZM9.79043 28.0694C10.3052 28.0694 10.721 28.4384 10.721 28.8919C10.721 29.3463 10.3052 29.7135 9.79043 29.7135C9.50198 29.7135 9.26091 29.7181 9.06826 29.7255C7.06809 29.8016 5.40163 30.1929 4.25206 30.8503C3.23407 31.4318 2.64244 32.2348 2.64244 33.2159V33.3476C2.6635 33.8001 2.26452 34.1803 1.75184 34.1988C1.24022 34.2164 0.80755 33.8641 0.787548 33.4115C0.781232 33.3058 0.779126 33.2391 0.779126 33.2159C0.779126 31.6339 1.68341 30.3644 3.23934 29.4751C4.66788 28.6591 6.65858 28.176 8.98825 28.087C9.29354 28.0759 9.56304 28.0694 9.79043 28.0694ZM14.0097 39.5883C12.6454 36.3325 11.18 33.5738 10.5179 30.6426C-1.54739 30.8392 6.74174 38.6907 14.0097 39.5883Z" fill="#FF914D"/>
</svg>
