<svg width="1217" height="10" viewBox="0 0 1217 10" fill="none" xmlns="http://www.w3.org/2000/svg">
<path d="M9.73576 5C9.73576 5.66667 9.61406 6.30208 9.37067 6.91667C9.11713 7.53125 8.77232 8.07292 8.31596 8.54167C7.85959 9.01042 7.33224 9.36458 6.7339 9.625C6.13556 9.875 5.51693 10 4.86788 10C4.22897 10 3.6002 9.875 3.00186 9.625C2.41366 9.36458 1.8863 9.01042 1.42994 8.54167C0.973574 8.07292 0.618626 7.53125 0.375232 6.91667C0.121698 6.30208 0 5.66667 0 5C0 4.34375 0.121698 3.70833 0.375232 3.09375C0.618626 2.47917 0.973574 1.9375 1.42994 1.46875C1.8863 1 2.41366 0.635417 3.00186 0.385417C3.6002 0.135417 4.22897 0 4.86788 0C5.51693 0 6.13556 0.135417 6.7339 0.385417C7.33224 0.635417 7.85959 1 8.31596 1.46875C8.77232 1.9375 9.11713 2.47917 9.37067 3.09375C9.61406 3.70833 9.73576 4.34375 9.73576 5ZM29.2073 5C29.2073 5.66667 29.0856 6.30208 28.8422 6.91667C28.5886 7.53125 28.2438 8.07292 27.7875 8.54167C27.3311 9.01042 26.8038 9.36458 26.2054 9.625C25.6071 9.875 24.9884 10 24.3394 10C23.7005 10 23.0717 9.875 22.4835 9.625C21.8852 9.36458 21.3578 9.01042 20.9015 8.54167C20.4451 8.07292 20.0901 7.53125 19.8467 6.91667C19.5932 6.30208 19.4715 5.66667 19.4715 5C19.4715 4.34375 19.5932 3.70833 19.8467 3.09375C20.0901 2.47917 20.4451 1.9375 20.9015 1.46875C21.3578 1 21.8852 0.635417 22.4835 0.385417C23.0717 0.135417 23.7005 0 24.3394 0C24.9884 0 25.6071 0.135417 26.2054 0.385417C26.8038 0.635417 27.3311 1 27.7875 1.46875C28.2438 1.9375 28.5886 2.47917 28.8422 3.09375C29.0856 3.70833 29.2073 4.34375 29.2073 5ZM48.6788 5C48.6788 5.66667 48.5571 6.30208 48.3137 6.91667C48.0602 7.53125 47.7153 8.07292 47.259 8.54167C46.8026 9.01042 46.2753 9.36458 45.6769 9.625C45.0786 9.875 44.46 10 43.8109 10C43.172 10 42.5432 9.875 41.955 9.625C41.3567 9.36458 40.8293 9.01042 40.373 8.54167C39.9166 8.07292 39.5616 7.53125 39.3183 6.91667C39.0647 6.30208 38.943 5.66667 38.943 5C38.943 4.34375 39.0647 3.70833 39.3183 3.09375C39.5616 2.47917 39.9166 1.9375 40.373 1.46875C40.8293 1 41.3567 0.635417 41.955 0.385417C42.5432 0.135417 43.172 0 43.8109 0C44.46 0 45.0786 0.135417 45.6769 0.385417C46.2753 0.635417 46.8026 1 47.259 1.46875C47.7153 1.9375 48.0602 2.47917 48.3137 3.09375C48.5571 3.70833 48.6788 4.34375 48.6788 5ZM68.1503 5C68.1503 5.66667 68.0286 6.30208 67.7852 6.91667C67.5317 7.53125 67.1869 8.07292 66.7305 8.54167C66.2741 9.01042 65.7468 9.36458 65.1484 9.625C64.5501 9.875 63.9315 10 63.2824 10C62.6435 10 62.0147 9.875 61.4265 9.625C60.8282 9.36458 60.3008 9.01042 59.8445 8.54167C59.3881 8.07292 59.0332 7.53125 58.7898 6.91667C58.5362 6.30208 58.4145 5.66667 58.4145 5C58.4145 4.34375 58.5362 3.70833 58.7898 3.09375C59.0332 2.47917 59.3881 1.9375 59.8445 1.46875C60.3008 1 60.8282 0.635417 61.4265 0.385417C62.0147 0.135417 62.6435 0 63.2824 0C63.9315 0 64.5501 0.135417 65.1484 0.385417C65.7468 0.635417 66.2741 1 66.7305 1.46875C67.1869 1.9375 67.5317 2.47917 67.7852 3.09375C68.0286 3.70833 68.1503 4.34375 68.1503 5ZM87.6218 5C87.6218 5.66667 87.5001 6.30208 87.2567 6.91667C87.0032 7.53125 86.6584 8.07292 86.202 8.54167C85.7456 9.01042 85.2183 9.36458 84.6199 9.625C84.0216 9.875 83.403 10 82.7539 10C82.115 10 81.4863 9.875 80.898 9.625C80.2997 9.36458 79.7724 9.01042 79.316 8.54167C78.8596 8.07292 78.5047 7.53125 78.2613 6.91667C78.0179 6.30208 77.886 5.66667 77.886 5C77.886 4.34375 78.0179 3.70833 78.2613 3.09375C78.5047 2.47917 78.8596 1.9375 79.316 1.46875C79.7724 1 80.2997 0.635417 80.898 0.385417C81.4863 0.135417 82.115 0 82.7539 0C83.403 0 84.0216 0.135417 84.6199 0.385417C85.2183 0.635417 85.7456 1 86.202 1.46875C86.6584 1.9375 87.0032 2.47917 87.2567 3.09375C87.5001 3.70833 87.6218 4.34375 87.6218 5ZM107.093 5C107.093 5.66667 106.972 6.30208 106.728 6.91667C106.475 7.53125 106.13 8.07292 105.674 8.54167C105.217 9.01042 104.69 9.36458 104.091 9.625C103.493 9.875 102.874 10 102.225 10C101.587 10 100.958 9.875 100.37 9.625C99.7712 9.36458 99.2439 9.01042 98.7875 8.54167C98.3311 8.07292 97.9762 7.53125 97.7328 6.91667C97.4894 6.30208 97.3576 5.66667 97.3576 5C97.3576 4.34375 97.4894 3.70833 97.7328 3.09375C97.9762 2.47917 98.3311 1.9375 98.7875 1.46875C99.2439 1 99.7712 0.635417 100.37 0.385417C100.958 0.135417 101.587 0 102.225 0C102.874 0 103.493 0.135417 104.091 0.385417C104.69 0.635417 105.217 1 105.674 1.46875C106.13 1.9375 106.475 2.47917 106.728 3.09375C106.972 3.70833 107.093 4.34375 107.093 5ZM126.565 5C126.565 5.66667 126.443 6.30208 126.2 6.91667C125.956 7.53125 125.601 8.07292 125.145 8.54167C124.689 9.01042 124.161 9.36458 123.563 9.625C122.965 9.875 122.346 10 121.697 10C121.058 10 120.439 9.875 119.841 9.625C119.243 9.36458 118.715 9.01042 118.259 8.54167C117.803 8.07292 117.448 7.53125 117.204 6.91667C116.961 6.30208 116.829 5.66667 116.829 5C116.829 4.34375 116.961 3.70833 117.204 3.09375C117.448 2.47917 117.803 1.9375 118.259 1.46875C118.715 1 119.243 0.635417 119.841 0.385417C120.439 0.135417 121.058 0 121.697 0C122.346 0 122.965 0.135417 123.563 0.385417C124.161 0.635417 124.689 1 125.145 1.46875C125.601 1.9375 125.956 2.47917 126.2 3.09375C126.443 3.70833 126.565 4.34375 126.565 5ZM146.036 5C146.036 5.66667 145.915 6.30208 145.671 6.91667C145.428 7.53125 145.073 8.07292 144.617 8.54167C144.16 9.01042 143.633 9.36458 143.034 9.625C142.436 9.875 141.818 10 141.168 10C140.53 10 139.911 9.875 139.313 9.625C138.714 9.36458 138.187 9.01042 137.731 8.54167C137.274 8.07292 136.919 7.53125 136.676 6.91667C136.432 6.30208 136.301 5.66667 136.301 5C136.301 4.34375 136.432 3.70833 136.676 3.09375C136.919 2.47917 137.274 1.9375 137.731 1.46875C138.187 1 138.714 0.635417 139.313 0.385417C139.911 0.135417 140.53 0 141.168 0C141.818 0 142.436 0.135417 143.034 0.385417C143.633 0.635417 144.16 1 144.617 1.46875C145.073 1.9375 145.428 2.47917 145.671 3.09375C145.915 3.70833 146.036 4.34375 146.036 5ZM165.518 5C165.518 5.66667 165.386 6.30208 165.143 6.91667C164.899 7.53125 164.544 8.07292 164.088 8.54167C163.632 9.01042 163.104 9.36458 162.506 9.625C161.908 9.875 161.289 10 160.65 10C160.001 10 159.382 9.875 158.784 9.625C158.186 9.36458 157.658 9.01042 157.202 8.54167C156.746 8.07292 156.391 7.53125 156.147 6.91667C155.904 6.30208 155.782 5.66667 155.782 5C155.782 4.34375 155.904 3.70833 156.147 3.09375C156.391 2.47917 156.746 1.9375 157.202 1.46875C157.658 1 158.186 0.635417 158.784 0.385417C159.382 0.135417 160.001 0 160.65 0C161.289 0 161.908 0.135417 162.506 0.385417C163.104 0.635417 163.632 1 164.088 1.46875C164.544 1.9375 164.899 2.47917 165.143 3.09375C165.386 3.70833 165.518 4.34375 165.518 5ZM184.99 5C184.99 5.66667 184.858 6.30208 184.614 6.91667C184.371 7.53125 184.016 8.07292 183.56 8.54167C183.103 9.01042 182.576 9.36458 181.978 9.625C181.379 9.875 180.761 10 180.122 10C179.473 10 178.854 9.875 178.256 9.625C177.657 9.36458 177.13 9.01042 176.674 8.54167C176.217 8.07292 175.862 7.53125 175.619 6.91667C175.375 6.30208 175.254 5.66667 175.254 5C175.254 4.34375 175.375 3.70833 175.619 3.09375C175.862 2.47917 176.217 1.9375 176.674 1.46875C177.13 1 177.657 0.635417 178.256 0.385417C178.854 0.135417 179.473 0 180.122 0C180.761 0 181.379 0.135417 181.978 0.385417C182.576 0.635417 183.103 1 183.56 1.46875C184.016 1.9375 184.371 2.47917 184.614 3.09375C184.858 3.70833 184.99 4.34375 184.99 5ZM204.461 5C204.461 5.66667 204.329 6.30208 204.086 6.91667C203.842 7.53125 203.487 8.07292 203.031 8.54167C202.575 9.01042 202.047 9.36458 201.449 9.625C200.851 9.875 200.232 10 199.593 10C198.944 10 198.325 9.875 197.727 9.625C197.129 9.36458 196.601 9.01042 196.145 8.54167C195.689 8.07292 195.334 7.53125 195.09 6.91667C194.847 6.30208 194.725 5.66667 194.725 5C194.725 4.34375 194.847 3.70833 195.09 3.09375C195.334 2.47917 195.689 1.9375 196.145 1.46875C196.601 1 197.129 0.635417 197.727 0.385417C198.325 0.135417 198.944 0 199.593 0C200.232 0 200.851 0.135417 201.449 0.385417C202.047 0.635417 202.575 1 203.031 1.46875C203.487 1.9375 203.842 2.47917 204.086 3.09375C204.329 3.70833 204.461 4.34375 204.461 5ZM223.933 5C223.933 5.66667 223.801 6.30208 223.557 6.91667C223.314 7.53125 222.959 8.07292 222.503 8.54167C222.046 9.01042 221.519 9.36458 220.921 9.625C220.332 9.875 219.704 10 219.065 10C218.416 10 217.797 9.875 217.199 9.625C216.6 9.36458 216.073 9.01042 215.617 8.54167C215.16 8.07292 214.815 7.53125 214.562 6.91667C214.318 6.30208 214.197 5.66667 214.197 5C214.197 4.34375 214.318 3.70833 214.562 3.09375C214.815 2.47917 215.16 1.9375 215.617 1.46875C216.073 1 216.6 0.635417 217.199 0.385417C217.797 0.135417 218.416 0 219.065 0C219.704 0 220.332 0.135417 220.921 0.385417C221.519 0.635417 222.046 1 222.503 1.46875C222.959 1.9375 223.314 2.47917 223.557 3.09375C223.801 3.70833 223.933 4.34375 223.933 5ZM243.404 5C243.404 5.66667 243.282 6.30208 243.029 6.91667C242.785 7.53125 242.43 8.07292 241.974 8.54167C241.518 9.01042 240.99 9.36458 240.392 9.625C239.804 9.875 239.175 10 238.536 10C237.887 10 237.268 9.875 236.67 9.625C236.072 9.36458 235.544 9.01042 235.088 8.54167C234.632 8.07292 234.287 7.53125 234.033 6.91667C233.79 6.30208 233.668 5.66667 233.668 5C233.668 4.34375 233.79 3.70833 234.033 3.09375C234.287 2.47917 234.632 1.9375 235.088 1.46875C235.544 1 236.072 0.635417 236.67 0.385417C237.268 0.135417 237.887 0 238.536 0C239.175 0 239.804 0.135417 240.392 0.385417C240.99 0.635417 241.518 1 241.974 1.46875C242.43 1.9375 242.785 2.47917 243.029 3.09375C243.282 3.70833 243.404 4.34375 243.404 5ZM262.876 5C262.876 5.66667 262.754 6.30208 262.5 6.91667C262.257 7.53125 261.902 8.07292 261.446 8.54167C260.989 9.01042 260.462 9.36458 259.864 9.625C259.275 9.875 258.647 10 258.008 10C257.359 10 256.74 9.875 256.142 9.625C255.543 9.36458 255.016 9.01042 254.56 8.54167C254.103 8.07292 253.758 7.53125 253.505 6.91667C253.262 6.30208 253.14 5.66667 253.14 5C253.14 4.34375 253.262 3.70833 253.505 3.09375C253.758 2.47917 254.103 1.9375 254.56 1.46875C255.016 1 255.543 0.635417 256.142 0.385417C256.74 0.135417 257.359 0 258.008 0C258.647 0 259.275 0.135417 259.864 0.385417C260.462 0.635417 260.989 1 261.446 1.46875C261.902 1.9375 262.257 2.47917 262.5 3.09375C262.754 3.70833 262.876 4.34375 262.876 5ZM282.347 5C282.347 5.66667 282.225 6.30208 281.972 6.91667C281.728 7.53125 281.374 8.07292 280.917 8.54167C280.461 9.01042 279.933 9.36458 279.335 9.625C278.747 9.875 278.118 10 277.479 10C276.83 10 276.212 9.875 275.613 9.625C275.015 9.36458 274.487 9.01042 274.031 8.54167C273.575 8.07292 273.23 7.53125 272.976 6.91667C272.733 6.30208 272.611 5.66667 272.611 5C272.611 4.34375 272.733 3.70833 272.976 3.09375C273.23 2.47917 273.575 1.9375 274.031 1.46875C274.487 1 275.015 0.635417 275.613 0.385417C276.212 0.135417 276.83 0 277.479 0C278.118 0 278.747 0.135417 279.335 0.385417C279.933 0.635417 280.461 1 280.917 1.46875C281.374 1.9375 281.728 2.47917 281.972 3.09375C282.225 3.70833 282.347 4.34375 282.347 5ZM301.819 5C301.819 5.66667 301.697 6.30208 301.443 6.91667C301.2 7.53125 300.845 8.07292 300.389 8.54167C299.932 9.01042 299.405 9.36458 298.817 9.625C298.218 9.875 297.59 10 296.951 10C296.302 10 295.683 9.875 295.085 9.625C294.486 9.36458 293.959 9.01042 293.503 8.54167C293.046 8.07292 292.701 7.53125 292.448 6.91667C292.205 6.30208 292.083 5.66667 292.083 5C292.083 4.34375 292.205 3.70833 292.448 3.09375C292.701 2.47917 293.046 1.9375 293.503 1.46875C293.959 1 294.486 0.635417 295.085 0.385417C295.683 0.135417 296.302 0 296.951 0C297.59 0 298.218 0.135417 298.817 0.385417C299.405 0.635417 299.932 1 300.389 1.46875C300.845 1.9375 301.2 2.47917 301.443 3.09375C301.697 3.70833 301.819 4.34375 301.819 5ZM321.29 5C321.29 5.66667 321.168 6.30208 320.915 6.91667C320.671 7.53125 320.317 8.07292 319.86 8.54167C319.404 9.01042 318.876 9.36458 318.288 9.625C317.69 9.875 317.071 10 316.422 10C315.773 10 315.155 9.875 314.556 9.625C313.958 9.36458 313.431 9.01042 312.974 8.54167C312.518 8.07292 312.173 7.53125 311.919 6.91667C311.676 6.30208 311.554 5.66667 311.554 5C311.554 4.34375 311.676 3.70833 311.919 3.09375C312.173 2.47917 312.518 1.9375 312.974 1.46875C313.431 1 313.958 0.635417 314.556 0.385417C315.155 0.135417 315.773 0 316.422 0C317.071 0 317.69 0.135417 318.288 0.385417C318.876 0.635417 319.404 1 319.86 1.46875C320.317 1.9375 320.671 2.47917 320.915 3.09375C321.168 3.70833 321.29 4.34375 321.29 5ZM340.762 5C340.762 5.66667 340.64 6.30208 340.386 6.91667C340.143 7.53125 339.788 8.07292 339.332 8.54167C338.875 9.01042 338.348 9.36458 337.76 9.625C337.161 9.875 336.543 10 335.894 10C335.245 10 334.626 9.875 334.028 9.625C333.429 9.36458 332.912 9.01042 332.446 8.54167C331.989 8.07292 331.644 7.53125 331.391 6.91667C331.148 6.30208 331.026 5.66667 331.026 5C331.026 4.34375 331.148 3.70833 331.391 3.09375C331.644 2.47917 331.989 1.9375 332.446 1.46875C332.912 1 333.429 0.635417 334.028 0.385417C334.626 0.135417 335.245 0 335.894 0C336.543 0 337.161 0.135417 337.76 0.385417C338.348 0.635417 338.875 1 339.332 1.46875C339.788 1.9375 340.143 2.47917 340.386 3.09375C340.64 3.70833 340.762 4.34375 340.762 5ZM360.233 5C360.233 5.66667 360.111 6.30208 359.858 6.91667C359.615 7.53125 359.26 8.07292 358.803 8.54167C358.347 9.01042 357.819 9.36458 357.231 9.625C356.633 9.875 356.014 10 355.365 10C354.716 10 354.098 9.875 353.499 9.625C352.901 9.36458 352.384 9.01042 351.927 8.54167C351.471 8.07292 351.116 7.53125 350.862 6.91667C350.619 6.30208 350.497 5.66667 350.497 5C350.497 4.34375 350.619 3.70833 350.862 3.09375C351.116 2.47917 351.471 1.9375 351.927 1.46875C352.384 1 352.901 0.635417 353.499 0.385417C354.098 0.135417 354.716 0 355.365 0C356.014 0 356.633 0.135417 357.231 0.385417C357.819 0.635417 358.347 1 358.803 1.46875C359.26 1.9375 359.615 2.47917 359.858 3.09375C360.111 3.70833 360.233 4.34375 360.233 5ZM379.705 5C379.705 5.66667 379.583 6.30208 379.329 6.91667C379.086 7.53125 378.731 8.07292 378.275 8.54167C377.818 9.01042 377.291 9.36458 376.703 9.625C376.104 9.875 375.486 10 374.837 10C374.188 10 373.569 9.875 372.971 9.625C372.372 9.36458 371.855 9.01042 371.399 8.54167C370.942 8.07292 370.587 7.53125 370.344 6.91667C370.091 6.30208 369.969 5.66667 369.969 5C369.969 4.34375 370.091 3.70833 370.344 3.09375C370.587 2.47917 370.942 1.9375 371.399 1.46875C371.855 1 372.372 0.635417 372.971 0.385417C373.569 0.135417 374.188 0 374.837 0C375.486 0 376.104 0.135417 376.703 0.385417C377.291 0.635417 377.818 1 378.275 1.46875C378.731 1.9375 379.086 2.47917 379.329 3.09375C379.583 3.70833 379.705 4.34375 379.705 5ZM399.176 5C399.176 5.66667 399.054 6.30208 398.811 6.91667C398.558 7.53125 398.203 8.07292 397.746 8.54167C397.29 9.01042 396.773 9.36458 396.174 9.625C395.576 9.875 394.957 10 394.308 10C393.659 10 393.041 9.875 392.442 9.625C391.854 9.36458 391.327 9.01042 390.87 8.54167C390.414 8.07292 390.059 7.53125 389.816 6.91667C389.562 6.30208 389.44 5.66667 389.44 5C389.44 4.34375 389.562 3.70833 389.816 3.09375C390.059 2.47917 390.414 1.9375 390.87 1.46875C391.327 1 391.854 0.635417 392.442 0.385417C393.041 0.135417 393.659 0 394.308 0C394.957 0 395.576 0.135417 396.174 0.385417C396.773 0.635417 397.29 1 397.746 1.46875C398.203 1.9375 398.558 2.47917 398.811 3.09375C399.054 3.70833 399.176 4.34375 399.176 5ZM418.648 5C418.648 5.66667 418.526 6.30208 418.283 6.91667C418.029 7.53125 417.684 8.07292 417.228 8.54167C416.761 9.01042 416.244 9.36458 415.646 9.625C415.047 9.875 414.429 10 413.78 10C413.131 10 412.512 9.875 411.914 9.625C411.326 9.36458 410.798 9.01042 410.342 8.54167C409.885 8.07292 409.531 7.53125 409.287 6.91667C409.034 6.30208 408.912 5.66667 408.912 5C408.912 4.34375 409.034 3.70833 409.287 3.09375C409.531 2.47917 409.885 1.9375 410.342 1.46875C410.798 1 411.326 0.635417 411.914 0.385417C412.512 0.135417 413.131 0 413.78 0C414.429 0 415.047 0.135417 415.646 0.385417C416.244 0.635417 416.761 1 417.228 1.46875C417.684 1.9375 418.029 2.47917 418.283 3.09375C418.526 3.70833 418.648 4.34375 418.648 5ZM438.119 5C438.119 5.66667 437.997 6.30208 437.754 6.91667C437.501 7.53125 437.156 8.07292 436.699 8.54167C436.243 9.01042 435.716 9.36458 435.117 9.625C434.519 9.875 433.9 10 433.251 10C432.602 10 431.984 9.875 431.385 9.625C430.797 9.36458 430.27 9.01042 429.813 8.54167C429.357 8.07292 429.002 7.53125 428.759 6.91667C428.505 6.30208 428.383 5.66667 428.383 5C428.383 4.34375 428.505 3.70833 428.759 3.09375C429.002 2.47917 429.357 1.9375 429.813 1.46875C430.27 1 430.797 0.635417 431.385 0.385417C431.984 0.135417 432.602 0 433.251 0C433.9 0 434.519 0.135417 435.117 0.385417C435.716 0.635417 436.243 1 436.699 1.46875C437.156 1.9375 437.501 2.47917 437.754 3.09375C437.997 3.70833 438.119 4.34375 438.119 5ZM457.591 5C457.591 5.66667 457.469 6.30208 457.226 6.91667C456.972 7.53125 456.627 8.07292 456.171 8.54167C455.715 9.01042 455.187 9.36458 454.589 9.625C453.99 9.875 453.372 10 452.723 10C452.084 10 451.455 9.875 450.857 9.625C450.269 9.36458 449.741 9.01042 449.285 8.54167C448.828 8.07292 448.474 7.53125 448.23 6.91667C447.977 6.30208 447.855 5.66667 447.855 5C447.855 4.34375 447.977 3.70833 448.23 3.09375C448.474 2.47917 448.828 1.9375 449.285 1.46875C449.741 1 450.269 0.635417 450.857 0.385417C451.455 0.135417 452.084 0 452.723 0C453.372 0 453.99 0.135417 454.589 0.385417C455.187 0.635417 455.715 1 456.171 1.46875C456.627 1.9375 456.972 2.47917 457.226 3.09375C457.469 3.70833 457.591 4.34375 457.591 5ZM477.062 5C477.062 5.66667 476.94 6.30208 476.697 6.91667C476.444 7.53125 476.099 8.07292 475.642 8.54167C475.186 9.01042 474.659 9.36458 474.06 9.625C473.462 9.875 472.843 10 472.194 10C471.555 10 470.927 9.875 470.338 9.625C469.74 9.36458 469.213 9.01042 468.756 8.54167C468.3 8.07292 467.945 7.53125 467.702 6.91667C467.448 6.30208 467.326 5.66667 467.326 5C467.326 4.34375 467.448 3.70833 467.702 3.09375C467.945 2.47917 468.3 1.9375 468.756 1.46875C469.213 1 469.74 0.635417 470.338 0.385417C470.927 0.135417 471.555 0 472.194 0C472.843 0 473.462 0.135417 474.06 0.385417C474.659 0.635417 475.186 1 475.642 1.46875C476.099 1.9375 476.444 2.47917 476.697 3.09375C476.94 3.70833 477.062 4.34375 477.062 5ZM496.534 5C496.534 5.66667 496.412 6.30208 496.169 6.91667C495.915 7.53125 495.57 8.07292 495.114 8.54167C494.658 9.01042 494.13 9.36458 493.532 9.625C492.934 9.875 492.315 10 491.666 10C491.027 10 490.398 9.875 489.81 9.625C489.212 9.36458 488.684 9.01042 488.228 8.54167C487.772 8.07292 487.417 7.53125 487.173 6.91667C486.92 6.30208 486.798 5.66667 486.798 5C486.798 4.34375 486.92 3.70833 487.173 3.09375C487.417 2.47917 487.772 1.9375 488.228 1.46875C488.684 1 489.212 0.635417 489.81 0.385417C490.398 0.135417 491.027 0 491.666 0C492.315 0 492.934 0.135417 493.532 0.385417C494.13 0.635417 494.658 1 495.114 1.46875C495.57 1.9375 495.915 2.47917 496.169 3.09375C496.412 3.70833 496.534 4.34375 496.534 5ZM516.005 5C516.005 5.66667 515.884 6.30208 515.64 6.91667C515.387 7.53125 515.042 8.07292 514.585 8.54167C514.129 9.01042 513.602 9.36458 513.003 9.625C512.405 9.875 511.786 10 511.137 10C510.498 10 509.87 9.875 509.281 9.625C508.683 9.36458 508.156 9.01042 507.699 8.54167C507.243 8.07292 506.888 7.53125 506.645 6.91667C506.391 6.30208 506.269 5.66667 506.269 5C506.269 4.34375 506.391 3.70833 506.645 3.09375C506.888 2.47917 507.243 1.9375 507.699 1.46875C508.156 1 508.683 0.635417 509.281 0.385417C509.87 0.135417 510.498 0 511.137 0C511.786 0 512.405 0.135417 513.003 0.385417C513.602 0.635417 514.129 1 514.585 1.46875C515.042 1.9375 515.387 2.47917 515.64 3.09375C515.884 3.70833 516.005 4.34375 516.005 5ZM535.477 5C535.477 5.66667 535.355 6.30208 535.112 6.91667C534.858 7.53125 534.513 8.07292 534.057 8.54167C533.601 9.01042 533.073 9.36458 532.475 9.625C531.877 9.875 531.258 10 530.609 10C529.97 10 529.341 9.875 528.753 9.625C528.155 9.36458 527.627 9.01042 527.171 8.54167C526.715 8.07292 526.36 7.53125 526.116 6.91667C525.873 6.30208 525.741 5.66667 525.741 5C525.741 4.34375 525.873 3.70833 526.116 3.09375C526.36 2.47917 526.715 1.9375 527.171 1.46875C527.627 1 528.155 0.635417 528.753 0.385417C529.341 0.135417 529.97 0 530.609 0C531.258 0 531.877 0.135417 532.475 0.385417C533.073 0.635417 533.601 1 534.057 1.46875C534.513 1.9375 534.858 2.47917 535.112 3.09375C535.355 3.70833 535.477 4.34375 535.477 5ZM554.948 5C554.948 5.66667 554.827 6.30208 554.583 6.91667C554.34 7.53125 553.985 8.07292 553.528 8.54167C553.072 9.01042 552.545 9.36458 551.946 9.625C551.348 9.875 550.729 10 550.08 10C549.441 10 548.823 9.875 548.224 9.625C547.626 9.36458 547.099 9.01042 546.642 8.54167C546.186 8.07292 545.831 7.53125 545.588 6.91667C545.344 6.30208 545.212 5.66667 545.212 5C545.212 4.34375 545.344 3.70833 545.588 3.09375C545.831 2.47917 546.186 1.9375 546.642 1.46875C547.099 1 547.626 0.635417 548.224 0.385417C548.823 0.135417 549.441 0 550.08 0C550.729 0 551.348 0.135417 551.946 0.385417C552.545 0.635417 553.072 1 553.528 1.46875C553.985 1.9375 554.34 2.47917 554.583 3.09375C554.827 3.70833 554.948 4.34375 554.948 5ZM574.42 5C574.42 5.66667 574.298 6.30208 574.055 6.91667C573.811 7.53125 573.456 8.07292 573 8.54167C572.544 9.01042 572.016 9.36458 571.418 9.625C570.82 9.875 570.201 10 569.552 10C568.913 10 568.294 9.875 567.696 9.625C567.098 9.36458 566.57 9.01042 566.114 8.54167C565.658 8.07292 565.303 7.53125 565.059 6.91667C564.816 6.30208 564.684 5.66667 564.684 5C564.684 4.34375 564.816 3.70833 565.059 3.09375C565.303 2.47917 565.658 1.9375 566.114 1.46875C566.57 1 567.098 0.635417 567.696 0.385417C568.294 0.135417 568.913 0 569.552 0C570.201 0 570.82 0.135417 571.418 0.385417C572.016 0.635417 572.544 1 573 1.46875C573.456 1.9375 573.811 2.47917 574.055 3.09375C574.298 3.70833 574.42 4.34375 574.42 5ZM593.891 5C593.891 5.66667 593.77 6.30208 593.526 6.91667C593.283 7.53125 592.928 8.07292 592.471 8.54167C592.015 9.01042 591.488 9.36458 590.889 9.625C590.291 9.875 589.672 10 589.023 10C588.384 10 587.766 9.875 587.168 9.625C586.569 9.36458 586.042 9.01042 585.585 8.54167C585.129 8.07292 584.774 7.53125 584.531 6.91667C584.287 6.30208 584.156 5.66667 584.156 5C584.156 4.34375 584.287 3.70833 584.531 3.09375C584.774 2.47917 585.129 1.9375 585.585 1.46875C586.042 1 586.569 0.635417 587.168 0.385417C587.766 0.135417 588.384 0 589.023 0C589.672 0 590.291 0.135417 590.889 0.385417C591.488 0.635417 592.015 1 592.471 1.46875C592.928 1.9375 593.283 2.47917 593.526 3.09375C593.77 3.70833 593.891 4.34375 593.891 5ZM613.373 5C613.373 5.66667 613.241 6.30208 612.998 6.91667C612.754 7.53125 612.399 8.07292 611.943 8.54167C611.487 9.01042 610.959 9.36458 610.361 9.625C609.763 9.875 609.144 10 608.505 10C607.856 10 607.237 9.875 606.639 9.625C606.041 9.36458 605.513 9.01042 605.057 8.54167C604.601 8.07292 604.246 7.53125 604.002 6.91667C603.759 6.30208 603.637 5.66667 603.637 5C603.637 4.34375 603.759 3.70833 604.002 3.09375C604.246 2.47917 604.601 1.9375 605.057 1.46875C605.513 1 606.041 0.635417 606.639 0.385417C607.237 0.135417 607.856 0 608.505 0C609.144 0 609.763 0.135417 610.361 0.385417C610.959 0.635417 611.487 1 611.943 1.46875C612.399 1.9375 612.754 2.47917 612.998 3.09375C613.241 3.70833 613.373 4.34375 613.373 5ZM632.844 5C632.844 5.66667 632.713 6.30208 632.469 6.91667C632.226 7.53125 631.871 8.07292 631.414 8.54167C630.958 9.01042 630.431 9.36458 629.832 9.625C629.234 9.875 628.615 10 627.977 10C627.328 10 626.709 9.875 626.111 9.625C625.512 9.36458 624.985 9.01042 624.529 8.54167C624.072 8.07292 623.717 7.53125 623.474 6.91667C623.23 6.30208 623.109 5.66667 623.109 5C623.109 4.34375 623.23 3.70833 623.474 3.09375C623.717 2.47917 624.072 1.9375 624.529 1.46875C624.985 1 625.512 0.635417 626.111 0.385417C626.709 0.135417 627.328 0 627.977 0C628.615 0 629.234 0.135417 629.832 0.385417C630.431 0.635417 630.958 1 631.414 1.46875C631.871 1.9375 632.226 2.47917 632.469 3.09375C632.713 3.70833 632.844 4.34375 632.844 5ZM652.316 5C652.316 5.66667 652.184 6.30208 651.941 6.91667C651.697 7.53125 651.342 8.07292 650.886 8.54167C650.43 9.01042 649.902 9.36458 649.304 9.625C648.706 9.875 648.087 10 647.448 10C646.799 10 646.18 9.875 645.582 9.625C644.984 9.36458 644.456 9.01042 644 8.54167C643.544 8.07292 643.199 7.53125 642.945 6.91667C642.702 6.30208 642.58 5.66667 642.58 5C642.58 4.34375 642.702 3.70833 642.945 3.09375C643.199 2.47917 643.544 1.9375 644 1.46875C644.456 1 644.984 0.635417 645.582 0.385417C646.18 0.135417 646.799 0 647.448 0C648.087 0 648.706 0.135417 649.304 0.385417C649.902 0.635417 650.43 1 650.886 1.46875C651.342 1.9375 651.697 2.47917 651.941 3.09375C652.184 3.70833 652.316 4.34375 652.316 5ZM671.787 5C671.787 5.66667 671.656 6.30208 671.412 6.91667C671.169 7.53125 670.814 8.07292 670.358 8.54167C669.901 9.01042 669.374 9.36458 668.775 9.625C668.187 9.875 667.558 10 666.92 10C666.271 10 665.652 9.875 665.054 9.625C664.455 9.36458 663.928 9.01042 663.471 8.54167C663.015 8.07292 662.67 7.53125 662.417 6.91667C662.173 6.30208 662.052 5.66667 662.052 5C662.052 4.34375 662.173 3.70833 662.417 3.09375C662.67 2.47917 663.015 1.9375 663.471 1.46875C663.928 1 664.455 0.635417 665.054 0.385417C665.652 0.135417 666.271 0 666.92 0C667.558 0 668.187 0.135417 668.775 0.385417C669.374 0.635417 669.901 1 670.358 1.46875C670.814 1.9375 671.169 2.47917 671.412 3.09375C671.656 3.70833 671.787 4.34375 671.787 5ZM691.259 5C691.259 5.66667 691.137 6.30208 690.884 6.91667C690.64 7.53125 690.285 8.07292 689.829 8.54167C689.373 9.01042 688.845 9.36458 688.247 9.625C687.659 9.875 687.03 10 686.391 10C685.742 10 685.123 9.875 684.525 9.625C683.927 9.36458 683.399 9.01042 682.943 8.54167C682.487 8.07292 682.142 7.53125 681.888 6.91667C681.645 6.30208 681.523 5.66667 681.523 5C681.523 4.34375 681.645 3.70833 681.888 3.09375C682.142 2.47917 682.487 1.9375 682.943 1.46875C683.399 1 683.927 0.635417 684.525 0.385417C685.123 0.135417 685.742 0 686.391 0C687.03 0 687.659 0.135417 688.247 0.385417C688.845 0.635417 689.373 1 689.829 1.46875C690.285 1.9375 690.64 2.47917 690.884 3.09375C691.137 3.70833 691.259 4.34375 691.259 5ZM710.73 5C710.73 5.66667 710.609 6.30208 710.355 6.91667C710.112 7.53125 709.757 8.07292 709.301 8.54167C708.844 9.01042 708.317 9.36458 707.719 9.625C707.13 9.875 706.502 10 705.863 10C705.214 10 704.595 9.875 703.997 9.625C703.398 9.36458 702.871 9.01042 702.415 8.54167C701.958 8.07292 701.613 7.53125 701.36 6.91667C701.116 6.30208 700.995 5.66667 700.995 5C700.995 4.34375 701.116 3.70833 701.36 3.09375C701.613 2.47917 701.958 1.9375 702.415 1.46875C702.871 1 703.398 0.635417 703.997 0.385417C704.595 0.135417 705.214 0 705.863 0C706.502 0 707.13 0.135417 707.719 0.385417C708.317 0.635417 708.844 1 709.301 1.46875C709.757 1.9375 710.112 2.47917 710.355 3.09375C710.609 3.70833 710.73 4.34375 710.73 5ZM730.202 5C730.202 5.66667 730.08 6.30208 729.827 6.91667C729.583 7.53125 729.228 8.07292 728.772 8.54167C728.316 9.01042 727.788 9.36458 727.19 9.625C726.602 9.875 725.973 10 725.334 10C724.685 10 724.066 9.875 723.468 9.625C722.87 9.36458 722.342 9.01042 721.886 8.54167C721.43 8.07292 721.085 7.53125 720.831 6.91667C720.588 6.30208 720.466 5.66667 720.466 5C720.466 4.34375 720.588 3.70833 720.831 3.09375C721.085 2.47917 721.43 1.9375 721.886 1.46875C722.342 1 722.87 0.635417 723.468 0.385417C724.066 0.135417 724.685 0 725.334 0C725.973 0 726.602 0.135417 727.19 0.385417C727.788 0.635417 728.316 1 728.772 1.46875C729.228 1.9375 729.583 2.47917 729.827 3.09375C730.08 3.70833 730.202 4.34375 730.202 5ZM749.674 5C749.674 5.66667 749.552 6.30208 749.298 6.91667C749.055 7.53125 748.7 8.07292 748.244 8.54167C747.787 9.01042 747.26 9.36458 746.672 9.625C746.073 9.875 745.445 10 744.806 10C744.157 10 743.538 9.875 742.94 9.625C742.341 9.36458 741.814 9.01042 741.358 8.54167C740.901 8.07292 740.556 7.53125 740.303 6.91667C740.059 6.30208 739.938 5.66667 739.938 5C739.938 4.34375 740.059 3.70833 740.303 3.09375C740.556 2.47917 740.901 1.9375 741.358 1.46875C741.814 1 742.341 0.635417 742.94 0.385417C743.538 0.135417 744.157 0 744.806 0C745.445 0 746.073 0.135417 746.672 0.385417C747.26 0.635417 747.787 1 748.244 1.46875C748.7 1.9375 749.055 2.47917 749.298 3.09375C749.552 3.70833 749.674 4.34375 749.674 5ZM769.145 5C769.145 5.66667 769.023 6.30208 768.77 6.91667C768.526 7.53125 768.171 8.07292 767.715 8.54167C767.259 9.01042 766.731 9.36458 766.143 9.625C765.545 9.875 764.926 10 764.277 10C763.628 10 763.009 9.875 762.411 9.625C761.813 9.36458 761.285 9.01042 760.829 8.54167C760.373 8.07292 760.028 7.53125 759.774 6.91667C759.531 6.30208 759.409 5.66667 759.409 5C759.409 4.34375 759.531 3.70833 759.774 3.09375C760.028 2.47917 760.373 1.9375 760.829 1.46875C761.285 1 761.813 0.635417 762.411 0.385417C763.009 0.135417 763.628 0 764.277 0C764.926 0 765.545 0.135417 766.143 0.385417C766.731 0.635417 767.259 1 767.715 1.46875C768.171 1.9375 768.526 2.47917 768.77 3.09375C769.023 3.70833 769.145 4.34375 769.145 5ZM788.617 5C788.617 5.66667 788.495 6.30208 788.241 6.91667C787.998 7.53125 787.643 8.07292 787.187 8.54167C786.73 9.01042 786.203 9.36458 785.615 9.625C785.016 9.875 784.398 10 783.749 10C783.1 10 782.481 9.875 781.883 9.625C781.284 9.36458 780.767 9.01042 780.311 8.54167C779.844 8.07292 779.499 7.53125 779.246 6.91667C779.003 6.30208 778.881 5.66667 778.881 5C778.881 4.34375 779.003 3.70833 779.246 3.09375C779.499 2.47917 779.844 1.9375 780.311 1.46875C780.767 1 781.284 0.635417 781.883 0.385417C782.481 0.135417 783.1 0 783.749 0C784.398 0 785.016 0.135417 785.615 0.385417C786.203 0.635417 786.73 1 787.187 1.46875C787.643 1.9375 787.998 2.47917 788.241 3.09375C788.495 3.70833 788.617 4.34375 788.617 5ZM808.088 5C808.088 5.66667 807.966 6.30208 807.713 6.91667C807.469 7.53125 807.115 8.07292 806.658 8.54167C806.202 9.01042 805.674 9.36458 805.086 9.625C804.488 9.875 803.869 10 803.22 10C802.571 10 801.953 9.875 801.354 9.625C800.756 9.36458 800.239 9.01042 799.782 8.54167C799.326 8.07292 798.971 7.53125 798.717 6.91667C798.474 6.30208 798.352 5.66667 798.352 5C798.352 4.34375 798.474 3.70833 798.717 3.09375C798.971 2.47917 799.326 1.9375 799.782 1.46875C800.239 1 800.756 0.635417 801.354 0.385417C801.953 0.135417 802.571 0 803.22 0C803.869 0 804.488 0.135417 805.086 0.385417C805.674 0.635417 806.202 1 806.658 1.46875C807.115 1.9375 807.469 2.47917 807.713 3.09375C807.966 3.70833 808.088 4.34375 808.088 5ZM827.56 5C827.56 5.66667 827.438 6.30208 827.184 6.91667C826.941 7.53125 826.586 8.07292 826.13 8.54167C825.673 9.01042 825.156 9.36458 824.558 9.625C823.959 9.875 823.341 10 822.692 10C822.043 10 821.424 9.875 820.826 9.625C820.237 9.36458 819.71 9.01042 819.254 8.54167C818.797 8.07292 818.442 7.53125 818.199 6.91667C817.945 6.30208 817.824 5.66667 817.824 5C817.824 4.34375 817.945 3.70833 818.199 3.09375C818.442 2.47917 818.797 1.9375 819.254 1.46875C819.71 1 820.237 0.635417 820.826 0.385417C821.424 0.135417 822.043 0 822.692 0C823.341 0 823.959 0.135417 824.558 0.385417C825.156 0.635417 825.673 1 826.13 1.46875C826.586 1.9375 826.941 2.47917 827.184 3.09375C827.438 3.70833 827.56 4.34375 827.56 5ZM847.031 5C847.031 5.66667 846.909 6.30208 846.666 6.91667C846.412 7.53125 846.057 8.07292 845.601 8.54167C845.145 9.01042 844.628 9.36458 844.029 9.625C843.431 9.875 842.812 10 842.163 10C841.514 10 840.896 9.875 840.297 9.625C839.709 9.36458 839.182 9.01042 838.725 8.54167C838.269 8.07292 837.914 7.53125 837.671 6.91667C837.417 6.30208 837.295 5.66667 837.295 5C837.295 4.34375 837.417 3.70833 837.671 3.09375C837.914 2.47917 838.269 1.9375 838.725 1.46875C839.182 1 839.709 0.635417 840.297 0.385417C840.896 0.135417 841.514 0 842.163 0C842.812 0 843.431 0.135417 844.029 0.385417C844.628 0.635417 845.145 1 845.601 1.46875C846.057 1.9375 846.412 2.47917 846.666 3.09375C846.909 3.70833 847.031 4.34375 847.031 5ZM866.503 5C866.503 5.66667 866.381 6.30208 866.138 6.91667C865.884 7.53125 865.539 8.07292 865.083 8.54167C864.626 9.01042 864.099 9.36458 863.501 9.625C862.902 9.875 862.284 10 861.635 10C860.986 10 860.367 9.875 859.769 9.625C859.18 9.36458 858.653 9.01042 858.197 8.54167C857.74 8.07292 857.385 7.53125 857.142 6.91667C856.889 6.30208 856.767 5.66667 856.767 5C856.767 4.34375 856.889 3.70833 857.142 3.09375C857.385 2.47917 857.74 1.9375 858.197 1.46875C858.653 1 859.18 0.635417 859.769 0.385417C860.367 0.135417 860.986 0 861.635 0C862.284 0 862.902 0.135417 863.501 0.385417C864.099 0.635417 864.626 1 865.083 1.46875C865.539 1.9375 865.884 2.47917 866.138 3.09375C866.381 3.70833 866.503 4.34375 866.503 5ZM885.974 5C885.974 5.66667 885.852 6.30208 885.609 6.91667C885.355 7.53125 885.011 8.07292 884.554 8.54167C884.098 9.01042 883.571 9.36458 882.972 9.625C882.374 9.875 881.755 10 881.106 10C880.457 10 879.839 9.875 879.24 9.625C878.652 9.36458 878.125 9.01042 877.668 8.54167C877.212 8.07292 876.857 7.53125 876.614 6.91667C876.36 6.30208 876.238 5.66667 876.238 5C876.238 4.34375 876.36 3.70833 876.614 3.09375C876.857 2.47917 877.212 1.9375 877.668 1.46875C878.125 1 878.652 0.635417 879.24 0.385417C879.839 0.135417 880.457 0 881.106 0C881.755 0 882.374 0.135417 882.972 0.385417C883.571 0.635417 884.098 1 884.554 1.46875C885.011 1.9375 885.355 2.47917 885.609 3.09375C885.852 3.70833 885.974 4.34375 885.974 5ZM905.446 5C905.446 5.66667 905.324 6.30208 905.081 6.91667C904.827 7.53125 904.482 8.07292 904.026 8.54167C903.569 9.01042 903.042 9.36458 902.444 9.625C901.845 9.875 901.227 10 900.578 10C899.939 10 899.31 9.875 898.712 9.625C898.124 9.36458 897.596 9.01042 897.14 8.54167C896.683 8.07292 896.328 7.53125 896.085 6.91667C895.832 6.30208 895.71 5.66667 895.71 5C895.71 4.34375 895.832 3.70833 896.085 3.09375C896.328 2.47917 896.683 1.9375 897.14 1.46875C897.596 1 898.124 0.635417 898.712 0.385417C899.31 0.135417 899.939 0 900.578 0C901.227 0 901.845 0.135417 902.444 0.385417C903.042 0.635417 903.569 1 904.026 1.46875C904.482 1.9375 904.827 2.47917 905.081 3.09375C905.324 3.70833 905.446 4.34375 905.446 5ZM924.917 5C924.917 5.66667 924.795 6.30208 924.552 6.91667C924.299 7.53125 923.954 8.07292 923.497 8.54167C923.041 9.01042 922.514 9.36458 921.915 9.625C921.317 9.875 920.698 10 920.049 10C919.41 10 918.782 9.875 918.193 9.625C917.595 9.36458 917.068 9.01042 916.611 8.54167C916.155 8.07292 915.8 7.53125 915.557 6.91667C915.303 6.30208 915.181 5.66667 915.181 5C915.181 4.34375 915.303 3.70833 915.557 3.09375C915.8 2.47917 916.155 1.9375 916.611 1.46875C917.068 1 917.595 0.635417 918.193 0.385417C918.782 0.135417 919.41 0 920.049 0C920.698 0 921.317 0.135417 921.915 0.385417C922.514 0.635417 923.041 1 923.497 1.46875C923.954 1.9375 924.299 2.47917 924.552 3.09375C924.795 3.70833 924.917 4.34375 924.917 5ZM944.389 5C944.389 5.66667 944.267 6.30208 944.024 6.91667C943.77 7.53125 943.425 8.07292 942.969 8.54167C942.512 9.01042 941.985 9.36458 941.387 9.625C940.788 9.875 940.17 10 939.521 10C938.882 10 938.253 9.875 937.665 9.625C937.067 9.36458 936.539 9.01042 936.083 8.54167C935.626 8.07292 935.271 7.53125 935.028 6.91667C934.775 6.30208 934.653 5.66667 934.653 5C934.653 4.34375 934.775 3.70833 935.028 3.09375C935.271 2.47917 935.626 1.9375 936.083 1.46875C936.539 1 937.067 0.635417 937.665 0.385417C938.253 0.135417 938.882 0 939.521 0C940.17 0 940.788 0.135417 941.387 0.385417C941.985 0.635417 942.512 1 942.969 1.46875C943.425 1.9375 943.77 2.47917 944.024 3.09375C944.267 3.70833 944.389 4.34375 944.389 5ZM963.86 5C963.86 5.66667 963.738 6.30208 963.495 6.91667C963.242 7.53125 962.897 8.07292 962.44 8.54167C961.984 9.01042 961.457 9.36458 960.858 9.625C960.26 9.875 959.641 10 958.992 10C958.353 10 957.725 9.875 957.136 9.625C956.538 9.36458 956.011 9.01042 955.554 8.54167C955.098 8.07292 954.743 7.53125 954.5 6.91667C954.246 6.30208 954.124 5.66667 954.124 5C954.124 4.34375 954.246 3.70833 954.5 3.09375C954.743 2.47917 955.098 1.9375 955.554 1.46875C956.011 1 956.538 0.635417 957.136 0.385417C957.725 0.135417 958.353 0 958.992 0C959.641 0 960.26 0.135417 960.858 0.385417C961.457 0.635417 961.984 1 962.44 1.46875C962.897 1.9375 963.242 2.47917 963.495 3.09375C963.738 3.70833 963.86 4.34375 963.86 5ZM983.332 5C983.332 5.66667 983.21 6.30208 982.967 6.91667C982.713 7.53125 982.368 8.07292 981.912 8.54167C981.456 9.01042 980.928 9.36458 980.33 9.625C979.731 9.875 979.113 10 978.464 10C977.825 10 977.196 9.875 976.608 9.625C976.01 9.36458 975.482 9.01042 975.026 8.54167C974.569 8.07292 974.215 7.53125 973.971 6.91667C973.728 6.30208 973.596 5.66667 973.596 5C973.596 4.34375 973.728 3.70833 973.971 3.09375C974.215 2.47917 974.569 1.9375 975.026 1.46875C975.482 1 976.01 0.635417 976.608 0.385417C977.196 0.135417 977.825 0 978.464 0C979.113 0 979.731 0.135417 980.33 0.385417C980.928 0.635417 981.456 1 981.912 1.46875C982.368 1.9375 982.713 2.47917 982.967 3.09375C983.21 3.70833 983.332 4.34375 983.332 5ZM1002.8 5C1002.8 5.66667 1002.68 6.30208 1002.44 6.91667C1002.19 7.53125 1001.84 8.07292 1001.38 8.54167C1000.93 9.01042 1000.4 9.36458 999.801 9.625C999.203 9.875 998.584 10 997.935 10C997.296 10 996.678 9.875 996.079 9.625C995.481 9.36458 994.954 9.01042 994.497 8.54167C994.041 8.07292 993.686 7.53125 993.443 6.91667C993.199 6.30208 993.067 5.66667 993.067 5C993.067 4.34375 993.199 3.70833 993.443 3.09375C993.686 2.47917 994.041 1.9375 994.497 1.46875C994.954 1 995.481 0.635417 996.079 0.385417C996.678 0.135417 997.296 0 997.935 0C998.584 0 999.203 0.135417 999.801 0.385417C1000.4 0.635417 1000.93 1 1001.38 1.46875C1001.84 1.9375 1002.19 2.47917 1002.44 3.09375C1002.68 3.70833 1002.8 4.34375 1002.8 5ZM1022.27 5C1022.27 5.66667 1022.15 6.30208 1021.91 6.91667C1021.67 7.53125 1021.31 8.07292 1020.85 8.54167C1020.4 9.01042 1019.87 9.36458 1019.27 9.625C1018.67 9.875 1018.06 10 1017.41 10C1016.77 10 1016.15 9.875 1015.55 9.625C1014.95 9.36458 1014.43 9.01042 1013.97 8.54167C1013.51 8.07292 1013.16 7.53125 1012.91 6.91667C1012.67 6.30208 1012.54 5.66667 1012.54 5C1012.54 4.34375 1012.67 3.70833 1012.91 3.09375C1013.16 2.47917 1013.51 1.9375 1013.97 1.46875C1014.43 1 1014.95 0.635417 1015.55 0.385417C1016.15 0.135417 1016.77 0 1017.41 0C1018.06 0 1018.67 0.135417 1019.27 0.385417C1019.87 0.635417 1020.4 1 1020.85 1.46875C1021.31 1.9375 1021.67 2.47917 1021.91 3.09375C1022.15 3.70833 1022.27 4.34375 1022.27 5ZM1041.76 5C1041.76 5.66667 1041.62 6.30208 1041.38 6.91667C1041.14 7.53125 1040.78 8.07292 1040.33 8.54167C1039.87 9.01042 1039.34 9.36458 1038.74 9.625C1038.15 9.875 1037.53 10 1036.89 10C1036.24 10 1035.62 9.875 1035.02 9.625C1034.42 9.36458 1033.9 9.01042 1033.44 8.54167C1032.98 8.07292 1032.63 7.53125 1032.39 6.91667C1032.14 6.30208 1032.01 5.66667 1032.01 5C1032.01 4.34375 1032.14 3.70833 1032.39 3.09375C1032.63 2.47917 1032.98 1.9375 1033.44 1.46875C1033.9 1 1034.42 0.635417 1035.02 0.385417C1035.62 0.135417 1036.24 0 1036.89 0C1037.53 0 1038.15 0.135417 1038.74 0.385417C1039.34 0.635417 1039.87 1 1040.33 1.46875C1040.78 1.9375 1041.14 2.47917 1041.38 3.09375C1041.62 3.70833 1041.76 4.34375 1041.76 5ZM1061.23 5C1061.23 5.66667 1061.1 6.30208 1060.85 6.91667C1060.61 7.53125 1060.25 8.07292 1059.8 8.54167C1059.34 9.01042 1058.81 9.36458 1058.22 9.625C1057.62 9.875 1057 10 1056.36 10C1055.71 10 1055.09 9.875 1054.49 9.625C1053.9 9.36458 1053.37 9.01042 1052.91 8.54167C1052.46 8.07292 1052.1 7.53125 1051.86 6.91667C1051.61 6.30208 1051.49 5.66667 1051.49 5C1051.49 4.34375 1051.61 3.70833 1051.86 3.09375C1052.1 2.47917 1052.46 1.9375 1052.91 1.46875C1053.37 1 1053.9 0.635417 1054.49 0.385417C1055.09 0.135417 1055.71 0 1056.36 0C1057 0 1057.62 0.135417 1058.22 0.385417C1058.81 0.635417 1059.34 1 1059.8 1.46875C1060.25 1.9375 1060.61 2.47917 1060.85 3.09375C1061.1 3.70833 1061.23 4.34375 1061.23 5ZM1080.7 5C1080.7 5.66667 1080.57 6.30208 1080.32 6.91667C1080.08 7.53125 1079.73 8.07292 1079.27 8.54167C1078.81 9.01042 1078.29 9.36458 1077.69 9.625C1077.09 9.875 1076.47 10 1075.83 10C1075.18 10 1074.56 9.875 1073.97 9.625C1073.37 9.36458 1072.84 9.01042 1072.38 8.54167C1071.93 8.07292 1071.57 7.53125 1071.33 6.91667C1071.09 6.30208 1070.96 5.66667 1070.96 5C1070.96 4.34375 1071.09 3.70833 1071.33 3.09375C1071.57 2.47917 1071.93 1.9375 1072.38 1.46875C1072.84 1 1073.37 0.635417 1073.97 0.385417C1074.56 0.135417 1075.18 0 1075.83 0C1076.47 0 1077.09 0.135417 1077.69 0.385417C1078.29 0.635417 1078.81 1 1079.27 1.46875C1079.73 1.9375 1080.08 2.47917 1080.32 3.09375C1080.57 3.70833 1080.7 4.34375 1080.7 5ZM1100.17 5C1100.17 5.66667 1100.04 6.30208 1099.8 6.91667C1099.55 7.53125 1099.2 8.07292 1098.74 8.54167C1098.28 9.01042 1097.76 9.36458 1097.16 9.625C1096.57 9.875 1095.94 10 1095.3 10C1094.65 10 1094.04 9.875 1093.44 9.625C1092.84 9.36458 1092.31 9.01042 1091.85 8.54167C1091.4 8.07292 1091.05 7.53125 1090.8 6.91667C1090.56 6.30208 1090.44 5.66667 1090.44 5C1090.44 4.34375 1090.56 3.70833 1090.8 3.09375C1091.05 2.47917 1091.4 1.9375 1091.85 1.46875C1092.31 1 1092.84 0.635417 1093.44 0.385417C1094.04 0.135417 1094.65 0 1095.3 0C1095.94 0 1096.57 0.135417 1097.16 0.385417C1097.76 0.635417 1098.28 1 1098.74 1.46875C1099.2 1.9375 1099.55 2.47917 1099.8 3.09375C1100.04 3.70833 1100.17 4.34375 1100.17 5ZM1119.64 5C1119.64 5.66667 1119.51 6.30208 1119.27 6.91667C1119.02 7.53125 1118.67 8.07292 1118.21 8.54167C1117.76 9.01042 1117.23 9.36458 1116.63 9.625C1116.04 9.875 1115.41 10 1114.77 10C1114.13 10 1113.51 9.875 1112.91 9.625C1112.31 9.36458 1111.78 9.01042 1111.33 8.54167C1110.87 8.07292 1110.53 7.53125 1110.27 6.91667C1110.03 6.30208 1109.91 5.66667 1109.91 5C1109.91 4.34375 1110.03 3.70833 1110.27 3.09375C1110.53 2.47917 1110.87 1.9375 1111.33 1.46875C1111.78 1 1112.31 0.635417 1112.91 0.385417C1113.51 0.135417 1114.13 0 1114.77 0C1115.41 0 1116.04 0.135417 1116.63 0.385417C1117.23 0.635417 1117.76 1 1118.21 1.46875C1118.67 1.9375 1119.02 2.47917 1119.27 3.09375C1119.51 3.70833 1119.64 4.34375 1119.64 5ZM1139.11 5C1139.11 5.66667 1138.99 6.30208 1138.74 6.91667C1138.5 7.53125 1138.14 8.07292 1137.68 8.54167C1137.23 9.01042 1136.7 9.36458 1136.1 9.625C1135.51 9.875 1134.88 10 1134.25 10C1133.6 10 1132.98 9.875 1132.38 9.625C1131.78 9.36458 1131.25 9.01042 1130.8 8.54167C1130.34 8.07292 1130 7.53125 1129.74 6.91667C1129.5 6.30208 1129.38 5.66667 1129.38 5C1129.38 4.34375 1129.5 3.70833 1129.74 3.09375C1130 2.47917 1130.34 1.9375 1130.8 1.46875C1131.25 1 1131.78 0.635417 1132.38 0.385417C1132.98 0.135417 1133.6 0 1134.25 0C1134.88 0 1135.51 0.135417 1136.1 0.385417C1136.7 0.635417 1137.23 1 1137.68 1.46875C1138.14 1.9375 1138.5 2.47917 1138.74 3.09375C1138.99 3.70833 1139.11 4.34375 1139.11 5ZM1158.59 5C1158.59 5.66667 1158.46 6.30208 1158.21 6.91667C1157.97 7.53125 1157.61 8.07292 1157.16 8.54167C1156.7 9.01042 1156.17 9.36458 1155.57 9.625C1154.99 9.875 1154.36 10 1153.72 10C1153.07 10 1152.45 9.875 1151.85 9.625C1151.25 9.36458 1150.73 9.01042 1150.27 8.54167C1149.81 8.07292 1149.47 7.53125 1149.21 6.91667C1148.97 6.30208 1148.85 5.66667 1148.85 5C1148.85 4.34375 1148.97 3.70833 1149.21 3.09375C1149.47 2.47917 1149.81 1.9375 1150.27 1.46875C1150.73 1 1151.25 0.635417 1151.85 0.385417C1152.45 0.135417 1153.07 0 1153.72 0C1154.36 0 1154.99 0.135417 1155.57 0.385417C1156.17 0.635417 1156.7 1 1157.16 1.46875C1157.61 1.9375 1157.97 2.47917 1158.21 3.09375C1158.46 3.70833 1158.59 4.34375 1158.59 5ZM1178.06 5C1178.06 5.66667 1177.94 6.30208 1177.68 6.91667C1177.44 7.53125 1177.08 8.07292 1176.63 8.54167C1176.17 9.01042 1175.64 9.36458 1175.04 9.625C1174.46 9.875 1173.83 10 1173.19 10C1172.54 10 1171.92 9.875 1171.32 9.625C1170.72 9.36458 1170.2 9.01042 1169.74 8.54167C1169.28 8.07292 1168.94 7.53125 1168.69 6.91667C1168.44 6.30208 1168.32 5.66667 1168.32 5C1168.32 4.34375 1168.44 3.70833 1168.69 3.09375C1168.94 2.47917 1169.28 1.9375 1169.74 1.46875C1170.2 1 1170.72 0.635417 1171.32 0.385417C1171.92 0.135417 1172.54 0 1173.19 0C1173.83 0 1174.46 0.135417 1175.04 0.385417C1175.64 0.635417 1176.17 1 1176.63 1.46875C1177.08 1.9375 1177.44 2.47917 1177.68 3.09375C1177.94 3.70833 1178.06 4.34375 1178.06 5ZM1197.53 5C1197.53 5.66667 1197.41 6.30208 1197.15 6.91667C1196.91 7.53125 1196.55 8.07292 1196.1 8.54167C1195.64 9.01042 1195.11 9.36458 1194.53 9.625C1193.93 9.875 1193.3 10 1192.66 10C1192.01 10 1191.39 9.875 1190.79 9.625C1190.2 9.36458 1189.67 9.01042 1189.21 8.54167C1188.76 8.07292 1188.41 7.53125 1188.16 6.91667C1187.91 6.30208 1187.79 5.66667 1187.79 5C1187.79 4.34375 1187.91 3.70833 1188.16 3.09375C1188.41 2.47917 1188.76 1.9375 1189.21 1.46875C1189.67 1 1190.2 0.635417 1190.79 0.385417C1191.39 0.135417 1192.01 0 1192.66 0C1193.3 0 1193.93 0.135417 1194.53 0.385417C1195.11 0.635417 1195.64 1 1196.1 1.46875C1196.55 1.9375 1196.91 2.47917 1197.15 3.09375C1197.41 3.70833 1197.53 4.34375 1197.53 5ZM1217 5C1217 5.66667 1216.88 6.30208 1216.62 6.91667C1216.38 7.53125 1216.03 8.07292 1215.57 8.54167C1215.11 9.01042 1214.59 9.36458 1214 9.625C1213.4 9.875 1212.78 10 1212.13 10C1211.48 10 1210.86 9.875 1210.27 9.625C1209.67 9.36458 1209.14 9.01042 1208.68 8.54167C1208.23 8.07292 1207.88 7.53125 1207.63 6.91667C1207.39 6.30208 1207.26 5.66667 1207.26 5C1207.26 4.34375 1207.39 3.70833 1207.63 3.09375C1207.88 2.47917 1208.23 1.9375 1208.68 1.46875C1209.14 1 1209.67 0.635417 1210.27 0.385417C1210.86 0.135417 1211.48 0 1212.13 0C1212.78 0 1213.4 0.135417 1214 0.385417C1214.59 0.635417 1215.11 1 1215.57 1.46875C1216.03 1.9375 1216.38 2.47917 1216.62 3.09375C1216.88 3.70833 1217 4.34375 1217 5Z" fill="white" fill-opacity="0.7"/>
</svg>
