<svg width="56" height="48" viewBox="0 0 56 48" fill="none" xmlns="http://www.w3.org/2000/svg">
<path d="M54.25 19.5937C53.3125 18.1875 51.625 17.4375 49.9375 17.4375H30.7188C31.2813 14.625 31.375 11.5312 31.2812 9.84374C31.1875 7.68749 30.9062 6.46873 30.8125 6.09373C30.4375 4.12498 29.4062 2.99999 28.6562 2.34374C27.625 1.49999 26.2188 1.12499 25 1.31249C23.875 1.40624 22.75 1.96874 22.0938 2.81249C21.3438 3.74999 20.9688 4.96873 20.9688 6.37499V6.46874C21.3438 10.2187 20.4062 12.5625 19.5625 13.875C18.7188 15.1875 17.875 15.6562 17.7812 15.75C15.625 17.0625 14.2187 17.9062 13.2812 18.5625C12.8125 18 12.0625 17.4375 11.125 17.4375H3.625C2.125 17.4375 0.8125 18.9375 0.8125 20.4375V42.9375C0.8125 44.4375 2.125 45.5625 3.625 45.5625H11.125C12.1562 45.5625 13.0938 45 13.5625 44.0625C14.4062 44.9062 15.4375 45.6562 16.6562 46.2187C18.8125 47.1562 20.6875 47.25 20.7812 47.25L29.5938 47.7187C29.875 47.8125 30.1562 47.8125 30.4375 47.8125H31.75H32.125H36.8125C37.75 47.8125 38.6875 47.4375 39.3438 46.7812C40 46.125 40.375 45.1875 40.375 44.25V42C40.375 41.4375 40.1875 40.875 39.9062 40.3125C40.9375 39.6562 41.6875 38.5312 41.6875 37.2187V34.9687C41.6875 34.4062 41.5 33.8437 41.2188 33.2812C41.5 33.0937 41.6875 33 41.875 32.7187C42.5312 32.0625 42.9062 31.125 42.9062 30.1875V27.9375C42.9062 27.5625 42.8125 27.0937 42.7188 26.7187H49.75L50.125 26.8125C52.0938 26.625 53.5 25.6875 54.3438 24.2812C55.375 22.875 55.1875 21 54.25 19.5937ZM12.0625 43.4062C12.0625 43.5 11.9688 43.6875 11.7812 43.6875H3.90625C3.71875 43.6875 3.625 43.5937 3.625 43.4062V20.5312C3.625 20.3437 3.71875 20.25 3.90625 20.25H11.875C11.9688 20.25 12.1562 20.3437 12.1562 20.5312V43.4062H12.0625ZM13.9375 21.4687C14.875 20.9062 16 19.7812 19 18C19.0938 18 20.4062 17.25 21.625 15.375C22.2812 14.3437 22.8438 13.125 23.125 11.8125C23.5 10.2187 23.5938 8.34374 23.4062 6.46874C23.3125 4.31249 24.8125 3.93749 25.1875 3.93749C26.5 3.74999 28 4.78123 28.375 6.84374V6.93749C28.375 6.93749 28.6562 8.06249 28.75 10.2187C28.8438 12.2812 28.6562 15.8437 27.5312 20.7187C27.25 21.75 25.6562 27 27.7188 29.4375C27.7188 29.4375 27.7188 29.5312 27.8125 29.5312C28.0938 29.8125 28.5625 30.4687 28.375 30.9375C28.1875 31.3125 27.625 31.7812 26.6875 32.0625C25.1875 32.625 22.8438 32.9062 19.8438 32.9062C19.2812 32.9062 18.9062 33.375 18.9062 33.8437V34.4062C18.9062 34.6875 19 34.9687 19.1875 35.0625C19.375 35.25 19.5625 35.3437 19.8438 35.3437C23.6875 35.3437 26.4062 34.7812 28.2812 33.9375C28.1875 34.3125 28.0937 34.6875 28.0937 35.0625V37.3125C28.0937 37.875 28.2812 38.4375 28.5625 39C27.5312 39.6562 26.7812 40.7812 26.7812 42.0937V44.3437C26.7812 44.625 26.875 45 26.875 45.2812L20.7812 45C20.7812 45 19.2812 44.9062 17.5938 44.25C15.4375 43.3125 13.8438 41.8125 13.8438 39.6562V21.4687H13.9375ZM29.3125 44.25V42C29.3125 41.3437 29.7812 40.875 30.4375 40.875H36.9062C37.5625 40.875 38.0312 41.3437 38.0312 42V44.25C38.0312 44.5312 37.9375 44.8125 37.6562 45.0937C37.4688 45.2812 37.1875 45.4687 36.8125 45.4687H30.3438C29.7812 45.375 29.3125 44.8125 29.3125 44.25ZM38.2188 38.3437H31.75C31.0938 38.3437 30.625 37.875 30.625 37.2187V34.9687C30.625 34.6875 30.7188 34.4062 31 34.2187C31.1875 34.0312 31.4687 33.8437 31.8437 33.8437H38.3125C38.9688 33.8437 39.4375 34.3125 39.4375 34.9687V37.2187C39.3438 37.875 38.7812 38.3437 38.2188 38.3437ZM39.5312 31.4062H33.0625C32.7813 31.4062 32.5 31.3125 32.2188 31.0312C32.0312 30.8437 31.8437 30.5625 31.8437 30.1875V27.9375C31.8437 27.2812 32.3125 26.8125 32.9688 26.8125H39.4375C39.7188 26.8125 40 26.9062 40.1875 27.1875C40.375 27.375 40.5625 27.6562 40.5625 28.0312V30.2812C40.5625 30.5625 40.4688 30.8437 40.1875 31.0312C40.0938 31.2187 39.8125 31.4062 39.5312 31.4062ZM38.3125 24.375H32.9688C31.1875 24.375 29.7812 25.6875 29.5 27.375C29.3125 26.9062 29.125 25.9687 29.3125 24.0937C29.5 22.7812 29.875 21.6562 29.9687 21.2812V21.1875C30.0625 20.8125 30.1562 20.25 30.1562 20.25H49.8438H49.9375H50.125C51.0625 20.1562 51.8125 20.5312 52.1875 21.1875C52.6562 21.8437 52.6562 22.6875 52.375 23.3437C51.9062 24.375 50.5 24.4687 49.8438 24.5625L38.3125 24.375Z" fill="#FF914D"/>
<path d="M7.46874 41.8125C8.78124 41.8125 9.81249 40.7812 9.81249 39.4688C9.81249 38.1562 8.78124 37.125 7.46874 37.125C6.15624 37.125 5.12499 38.1562 5.12499 39.4688C5.12499 40.7812 6.15624 41.8125 7.46874 41.8125ZM7.46874 40.3125C6.99999 40.3125 6.62499 39.9375 6.62499 39.4688C6.62499 39 6.99999 38.625 7.46874 38.625C7.93749 38.625 8.31249 39 8.31249 39.4688C8.31249 39.9375 7.93749 40.3125 7.46874 40.3125Z" fill="#FF914D"/>
<path d="M35.5 8.625C35.5938 8.8125 35.875 9 36.0625 9.09375C36.1563 9.09375 36.25 9.09375 36.25 9.09375C36.4375 9.09375 36.625 9.09375 36.7188 9L37.1875 8.71875C37.6563 8.4375 37.75 7.875 37.4688 7.40625L33.4375 0.75C33.1563 0.28125 32.5938 0.1875 32.125 0.46875L31.75 0.65625C31.5625 0.75 31.375 1.03125 31.2813 1.21875C31.1875 1.5 31.2813 1.6875 31.375 1.96875L35.5 8.625Z" fill="#FF914D"/>
<path d="M39.5312 8.81249L40.0937 8.99999C40.1875 8.99999 40.2812 8.99999 40.375 8.99999C40.75 8.99999 41.125 8.71874 41.3125 8.34374L43.1875 1.68749C43.2812 1.40624 43.1875 1.21874 43.0937 0.937488C43 0.749988 42.8125 0.562488 42.5312 0.468738L41.9687 0.281238C41.5 0.187488 40.9375 0.468738 40.8437 0.937488L38.9687 7.59374C38.875 7.87499 38.9687 8.06249 39.0625 8.34374C39.0625 8.53124 39.25 8.71874 39.5312 8.81249Z" fill="#FF914D"/>
<path d="M42.3438 11.0625L42.625 11.5313C42.7188 11.7188 43 11.9063 43.1875 11.9063C43.2813 11.9063 43.2813 11.9063 43.375 11.9063C43.5625 11.9063 43.75 11.8125 43.9375 11.7188L50.5938 7.3125C50.7813 7.21875 50.9688 6.9375 50.9688 6.75C50.9688 6.5625 50.9688 6.28125 50.875 6L50.5938 5.53125C50.3125 5.0625 49.75 4.96875 49.2813 5.25L42.625 9.65625C42.25 10.125 42.0625 10.6875 42.3438 11.0625Z" fill="#FF914D"/>
<path d="M50.2188 14.3437L43.5625 13.0312C43.0938 12.9375 42.5313 13.2187 42.4375 13.7812L42.3438 14.3437C42.25 14.625 42.3438 14.8125 42.4375 15.0937C42.5313 15.2812 42.8125 15.4687 43 15.4687L49.6562 16.7812C49.75 16.7812 49.75 16.7812 49.8438 16.7812C50.3125 16.7812 50.6875 16.5 50.7812 16.0312L50.875 15.4687C50.9688 15.1875 50.875 15 50.7812 14.7187C50.6875 14.5312 50.5 14.4375 50.2188 14.3437Z" fill="#FF914D"/>
</svg>
