<svg width="52" height="36" viewBox="0 0 52 36" fill="none" xmlns="http://www.w3.org/2000/svg">
<path d="M22.2145 11.7666C21.9877 11.5833 21.5297 11.9925 21.4933 12.8535C21.4573 13.7145 22.2869 14.2907 22.8277 14.3627C23.3685 14.4347 23.3322 14.1106 23.0078 14.0746C22.6833 14.0386 22.1425 13.099 22.1425 12.6669C22.1425 12.2348 22.3949 11.9107 22.2145 11.7666Z" fill="#FF914D"/>
<path d="M23.5329 13.3151C23.3656 13.2954 23.2602 13.8585 23.8731 14.2186C24.4862 14.5787 25.7842 14.8668 26.5775 14.8668C27.3707 14.8668 28.4163 14.2154 28.1276 14.091C27.8395 13.9665 27.4427 14.4183 26.3971 14.3725C25.3515 14.3267 24.1978 14.0746 24.0174 13.7865C23.837 13.4951 23.8416 13.3511 23.5329 13.3151Z" fill="#FF914D"/>
<path d="M29.5699 11.0072C29.2959 10.8926 28.6686 11.5866 29.3175 11.9107C29.9663 12.2348 30.1107 12.428 29.9303 12.8535C29.7503 13.2791 29.9293 13.8226 30.002 13.7505C30.0747 13.6752 31.0119 13.3151 30.7959 12.703C30.5795 12.0908 30.2551 11.2985 29.5699 11.0072Z" fill="#FF914D"/>
<path d="M24.9558 5.41891C24.5322 5.88705 23.6558 9.60273 23.3323 10.431C23.0089 11.2625 23.079 11.4426 23.3323 11.4786C23.5857 11.5146 23.7298 10.7191 24.2706 8.8465C24.8114 6.97065 25.3162 5.02279 24.9558 5.41891Z" fill="#FF914D"/>
<path d="M32.9687 27.5591C31.4903 28.8915 29.0026 28.6394 28.9666 28.0993C28.9305 27.5591 29.9762 24.0595 29.219 23.6634C28.4617 23.2672 26.4379 23.0152 26.4379 23.0152C26.4379 23.0152 24.4138 23.2672 23.6569 23.6634C22.8997 24.0595 23.9453 27.5591 23.9093 28.0993C23.873 28.6394 21.3853 28.8915 19.9068 27.5591C18.4288 26.2234 19.7268 21.8988 19.9068 21.2834C20.0872 20.6712 22.7553 19.7709 23.4035 19.6989C24.0514 19.6269 25.6038 19.8069 26.4379 19.8789C27.2717 19.8069 28.8241 19.6269 29.472 19.6989C30.1202 19.7709 32.7883 20.6712 32.9687 21.2834C33.1491 21.8988 34.4471 26.2234 32.9687 27.5591ZM4.04271 15.1189C4.04271 15.1189 3.32152 14.6508 2.63633 14.091C1.95147 13.5312 1.77108 12.847 1.66304 12.1988C1.55468 11.5506 1.04987 5.41888 0.905824 3.61833C0.761453 1.81451 1.15824 1.85051 1.80709 1.85051C2.45627 1.85051 4.04271 3.07489 4.04271 3.07489C4.04958 3.76892 4.15074 7.11467 4.22276 10.0348C4.29511 12.955 4.04271 15.1189 4.04271 15.1189ZM50.8066 0.662155C50.4821 0.298771 49.6532 -0.241394 49.5445 0.118717C49.5154 0.216927 49.4961 0.377342 49.4741 0.554123C49.7177 0.586861 49.9492 0.622871 50.0854 0.662155C50.4821 0.770187 50.4101 1.95855 50.4101 4.55462C50.4101 7.15068 49.9413 11.0431 49.7969 12.3755C49.6529 13.708 48.0304 13.9306 47.8615 13.9306C47.6933 13.9306 47.6697 10.3229 47.6337 8.70243C47.5976 7.07866 47.8615 2.95704 47.8615 2.95704C47.6065 4.26325 47.1681 6.42064 46.8764 7.36674C46.444 8.77445 46.0112 9.6027 46.0112 9.6027C46.0112 9.6027 44.5688 21.3554 40.2422 21.8268C35.9157 22.2949 36.7809 17.2108 36.2041 17.0308C35.6273 16.8507 30.7223 16.4873 29.6046 16.5234C28.487 16.5594 26.4379 17.1028 26.4379 17.1028C26.4379 17.1028 23.3321 16.3073 22.8277 16.3073C22.3229 16.3073 17.2591 16.8606 16.7179 17.0766C16.1771 17.2927 15.3279 22.583 13.381 22.547C11.4341 22.511 8.83805 20.3471 7.93647 16.2353C7.03521 12.1267 6.81882 9.24259 6.81882 9.24259C6.81882 9.24259 5.48478 6.64652 4.79992 3.00287L3.64594 2.06658C3.06911 1.63445 2.16785 0.91423 1.08622 1.20232C0.00424898 1.49041 -0.211826 2.57728 0.184622 5.36977C0.581397 8.15899 1.15823 11.5146 1.30227 12.5949C1.44664 13.6752 1.80708 14.1466 2.6003 14.6868C3.39353 15.227 4.29511 15.5511 4.29511 15.5511C4.29511 15.5511 5.26839 22.9431 5.88156 23.8434C6.4944 24.747 10.2081 28.8555 14.2823 31.5596C18.3567 34.2637 22.7913 36.1035 27.4066 35.9955C32.0216 35.8874 34.5816 34.5158 35.6273 33.9036C36.6729 33.2914 42.9827 28.0993 44.1723 27.127C45.3623 26.1514 46.3717 24.5669 46.8044 21.8988C47.2372 19.2307 47.6697 15.1189 47.6697 15.1189C47.6697 15.1189 50.2297 13.9338 50.4461 13.0467C50.6625 12.1628 50.9869 6.14237 50.9869 4.33855C50.9869 2.53473 51.131 1.02227 50.8066 0.662155Z" fill="#FF914D"/>
<path d="M28.7404 20.3111C29.3729 20.0786 26.1728 20.5631 25.0768 20.5631C23.9811 20.5631 23.6567 20.275 23.6203 20.5631C23.5843 20.8512 26.5771 21.1033 28.7404 20.3111Z" fill="#FF914D"/>
</svg>
