<svg width="39" height="53" viewBox="0 0 39 53" fill="none" xmlns="http://www.w3.org/2000/svg">
<path d="M16.375 26.8125C16.1264 26.8125 15.8879 26.9113 15.7121 27.0871C15.5363 27.2629 15.4375 27.5014 15.4375 27.75V30.5625C15.4375 30.8111 15.5363 31.0496 15.7121 31.2254C15.8879 31.4012 16.1264 31.5 16.375 31.5C16.6236 31.5 16.8621 31.4012 17.0379 31.2254C17.2137 31.0496 17.3125 30.8111 17.3125 30.5625V27.75C17.3125 27.5014 17.2137 27.2629 17.0379 27.0871C16.8621 26.9113 16.6236 26.8125 16.375 26.8125Z" fill="#FF914D"/>
<path d="M27.625 26.8125C27.3764 26.8125 27.1379 26.9113 26.9621 27.0871C26.7863 27.2629 26.6875 27.5014 26.6875 27.75V30.5625C26.6875 30.8111 26.7863 31.0496 26.9621 31.2254C27.1379 31.4012 27.3764 31.5 27.625 31.5C27.8736 31.5 28.1121 31.4012 28.2879 31.2254C28.4637 31.0496 28.5625 30.8111 28.5625 30.5625V27.75C28.5625 27.5014 28.4637 27.2629 28.2879 27.0871C28.1121 26.9113 27.8736 26.8125 27.625 26.8125Z" fill="#FF914D"/>
<path d="M0.4375 7.70623C0.4375 7.70623 2.25625 12.0844 5.39687 13.4906C4.916 13.7052 4.39533 13.8161 3.86875 13.8161C3.34217 13.8161 2.8215 13.7052 2.34062 13.4906C2.95511 14.9057 3.99775 16.0926 5.32188 16.8844C5.03401 17.0055 4.72483 17.068 4.4125 17.068C4.10017 17.068 3.79099 17.0055 3.50313 16.8844C5.04614 18.5348 6.22196 20.4934 6.95312 22.6312C7.05625 22.9406 7.17812 23.2406 7.30937 23.5687H7.19687C6.77667 23.5687 6.37368 23.7357 6.07655 24.0328C5.77943 24.3299 5.6125 24.7329 5.6125 25.1531V30.5625C5.6183 31.5774 5.98896 32.5563 6.65679 33.3205C7.32462 34.0847 8.24505 34.5832 9.25 34.725C10.1794 37.021 11.9402 38.8823 14.1812 39.9375C15.2009 40.3951 16.2464 40.7926 17.3125 41.1281C17.7719 41.2781 18.25 41.4094 18.7375 41.5219V43.3969C18.7358 43.6662 18.6325 43.9249 18.4482 44.1213C18.264 44.3177 18.0124 44.4373 17.7437 44.4562L11.1812 44.8969C10.1673 44.9611 9.21563 45.4085 8.51929 46.1484C7.82294 46.8882 7.43398 47.8652 7.43125 48.8812V52.6312H36.4937V48.8812C36.491 47.8652 36.1021 46.8882 35.4057 46.1484C34.7094 45.4085 33.7577 44.9611 32.7437 44.8969L26.1812 44.4562C25.9126 44.4373 25.661 44.3177 25.4768 44.1213C25.2925 43.9249 25.1892 43.6662 25.1875 43.3969V41.5219C25.6844 41.4094 26.125 41.2781 26.6125 41.1281C27.704 40.7954 28.7747 40.3979 29.8188 39.9375C32.0617 38.8929 33.8289 37.0419 34.7687 34.7531C35.7785 34.6107 36.7027 34.1081 37.3712 33.338C38.0396 32.5679 38.4072 31.5822 38.4062 30.5625V25.125C38.4062 24.7048 38.2393 24.3018 37.9422 24.0047C37.6451 23.7075 37.2421 23.5406 36.8219 23.5406H36.7094C37.1189 22.5639 37.4328 21.5498 37.6469 20.5125C40.6187 3.30936 32.1906 5.16561 32.1906 5.16561C30.9419 3.69551 29.3762 2.52766 27.6111 1.74985C25.846 0.972053 23.9276 0.604551 22 0.674983C15.55 1.00311 10.75 2.66248 7.1125 1.49998C7.78426 2.39787 8.62502 3.15583 9.5875 3.73123C9.5875 3.73123 4.95625 5.71873 0.821875 3.57186C0.821875 3.57186 2.48125 7.32186 4.88125 8.61561C4.88125 8.61561 1.98438 8.69998 0.4375 7.70623ZM26.2188 45.375L27.55 45.4594C27.2687 46.2375 26.1156 48.5156 22 48.5812C17.8844 48.6469 16.7125 46.2562 16.45 45.4687L17.7812 45.375C18.2879 45.3396 18.7624 45.1142 19.1101 44.744C19.4577 44.3738 19.6528 43.8859 19.6562 43.3781V41.7094L20.2562 41.775H20.6594C21.5511 41.8594 22.4489 41.8594 23.3406 41.775H23.7344L24.3438 41.7094V43.3781C24.3472 43.8859 24.5423 44.3738 24.8899 44.744C25.2376 45.1142 25.7121 45.3396 26.2188 45.375ZM37.4688 25.1156V30.5625C37.4636 31.3927 37.1448 32.1903 36.5762 32.7954C36.0077 33.4005 35.2314 33.7682 34.4031 33.825H34.1125L34 34.1062C33.1777 36.2867 31.536 38.0597 29.425 39.0469C28.4417 39.4969 27.4338 39.8912 26.4062 40.2281C25.8535 40.4124 25.2899 40.5627 24.7188 40.6781C24.2406 40.7719 23.7812 40.8375 23.2844 40.8844C21.947 41.0079 20.5988 40.9384 19.2812 40.6781C18.7141 40.5625 18.1539 40.4154 17.6031 40.2375C16.5768 39.8934 15.5692 39.496 14.5844 39.0469C12.4734 38.0597 10.8317 36.2867 10.0094 34.1062L9.89688 33.825H9.60625C8.77626 33.7705 7.9977 33.4037 7.42719 32.7984C6.85669 32.1931 6.53657 31.3942 6.53125 30.5625V25.125C6.53125 25.04 6.54798 24.9559 6.58049 24.8774C6.613 24.799 6.66065 24.7276 6.72072 24.6676C6.78078 24.6075 6.85209 24.5599 6.93058 24.5273C7.00906 24.4948 7.09318 24.4781 7.17813 24.4781H7.6375L10.0469 31.0406L9.94375 27.9L9.8125 24L11.5375 18.2531C14.9998 18.7823 18.4975 19.0456 22 19.0406C25.5025 19.0456 29.0002 18.7823 32.4625 18.2531L34.1875 24L34.0563 27.8531L33.9531 30.9937L36.3625 24.4312H36.8219C36.9101 24.4311 36.9974 24.449 37.0784 24.4838C37.1594 24.5186 37.2325 24.5697 37.2931 24.6338C37.3537 24.6979 37.4005 24.7737 37.4307 24.8565C37.4609 24.9394 37.4739 25.0276 37.4688 25.1156Z" fill="#FF914D"/>
</svg>
