<svg width="46" height="43" viewBox="0 0 46 43" fill="none" xmlns="http://www.w3.org/2000/svg">
<path d="M40.5001 28.75C40.5001 28.75 35.5001 34.175 35.5001 37.5C35.5001 38.8261 36.0269 40.0979 36.9646 41.0355C37.9023 41.9732 39.174 42.5 40.5001 42.5C41.8262 42.5 43.098 41.9732 44.0357 41.0355C44.9733 40.0979 45.5001 38.8261 45.5001 37.5C45.5001 34.175 40.5001 28.75 40.5001 28.75ZM6.02513 25L18.0001 13.025L29.9751 25H6.02513ZM34.4001 22.35L12.0501 0L8.52513 3.525L14.4751 9.475L1.60013 22.35C0.125129 23.75 0.125129 26.175 1.60013 27.65L15.3501 41.4C16.0751 42.125 17.0501 42.5 18.0001 42.5C18.9501 42.5 19.9251 42.125 20.6501 41.4L34.4001 27.65C35.8751 26.175 35.8751 23.75 34.4001 22.35Z" fill="#FF914D"/>
</svg>
