<svg width="60" height="60" viewBox="0 0 60 60" fill="none" xmlns="http://www.w3.org/2000/svg">
<path d="M23.6786 34.4264C21.1612 34.4264 18.7813 34.7996 16.9777 35.4772C14.3186 36.4762 13.7603 37.7819 13.7603 38.7013C13.7988 41.9673 20.2451 43.0355 23.6786 42.9762C27.1052 43.0385 33.5665 41.9623 33.5968 38.7013C33.5968 37.7819 33.0386 36.4762 30.3794 35.4772C28.5758 34.7995 26.196 34.4264 23.6786 34.4264ZM31.839 38.7013C31.839 39.0985 31.1965 39.7406 29.7612 40.2798C28.1502 40.8851 25.9901 41.2183 23.6786 41.2183C18.7729 41.2183 15.5181 39.7033 15.5181 38.7013C15.5181 38.3041 16.1606 37.6619 17.5959 37.1228C19.2068 36.5175 21.3671 36.1842 23.6786 36.1842C28.5843 36.1842 31.839 37.6992 31.839 38.7013Z" fill="#FF914D"/>
<path d="M38.0754 21.468C38.0754 19.0708 35.5192 17.1931 32.2559 17.1931C24.5426 17.3308 24.5437 25.6057 32.256 25.7429C35.5192 25.7428 38.0754 23.8651 38.0754 21.468ZM32.2559 23.985C30.0542 23.985 28.1942 22.8323 28.1942 21.4679C28.1942 20.1035 30.0543 18.9508 32.2559 18.9508C34.4575 18.9508 36.3176 20.1035 36.3176 21.4679C36.3176 22.8324 34.4576 23.985 32.2559 23.985Z" fill="#FF914D"/>
<path d="M15.1012 17.1931C11.8379 17.1931 9.28167 19.0708 9.28167 21.468C9.45229 27.129 20.7516 27.1271 20.9207 21.4679C20.9206 19.0708 18.3644 17.1931 15.1012 17.1931ZM15.1012 23.985C12.8995 23.985 11.0395 22.8323 11.0395 21.4679C11.0395 20.1035 12.8996 18.9508 15.1012 18.9508C17.3028 18.9508 19.1629 20.1035 19.1629 21.4679C19.1628 22.8324 17.3028 23.985 15.1012 23.985Z" fill="#FF914D"/>
<path d="M6.54578 35.0279C5.70098 32.4876 5.27254 29.7981 5.27254 27.0337C5.27254 25.8974 3.51473 25.8974 3.51473 27.0337C3.51473 29.9869 3.9734 32.8632 4.87774 35.5826C5.22977 36.6414 6.90461 36.107 6.54578 35.0279Z" fill="#FF914D"/>
<path d="M7.81788 41.5913C8.48233 42.5767 9.89139 41.522 9.27534 40.6085C8.78139 39.8759 8.32378 39.0996 7.91526 38.3011C7.39776 37.2893 5.83284 38.0902 6.35034 39.1017C6.79085 39.9628 7.28456 40.8004 7.81788 41.5913Z" fill="#FF914D"/>
<path d="M21.6041 27.7229C21.9467 26.6394 20.2708 26.1093 19.9281 27.1928L19.1516 29.6479C18.7135 31.033 19.8185 32.4847 21.2413 32.4847H26.1206C27.5373 32.4847 28.6432 31.0324 28.2124 29.6547L27.4434 27.1957C27.1042 26.1111 25.4265 26.6356 25.7658 27.7203L26.5347 30.1794C26.5835 30.4999 26.4454 30.6823 26.1207 30.7269H21.2414C20.9159 30.682 20.778 30.499 20.8277 30.1781L21.6041 27.7229Z" fill="#FF914D"/>
<path d="M59.121 45.6547H58.3611C58.4911 43.8337 57.1941 42.311 55.3268 42.3958C54.9319 40.051 53.0183 38.2091 50.6248 37.9031C50.2173 35.7514 48.5381 34.0468 46.3753 33.5973C48.3375 24.8588 46.1401 14.8895 40.4986 8.29025C40.2688 8.0158 39.8956 7.90822 39.5546 8.01837L37.6636 8.62962L38.5558 7.18013C38.7747 6.82447 38.713 6.36381 38.4082 6.07822C32.6175 0.621163 24.6023 -1.39329 17.2152 0.986787C16.1327 1.33249 16.6679 3.00756 17.7502 2.66116C24.3009 0.550499 31.3955 2.21456 36.6766 6.8799L34.917 9.73845C34.4977 10.4198 35.1743 11.2818 35.9358 11.0354L39.5245 9.87532C44.8115 16.3687 46.6244 26.1311 44.3704 34.4566C43.7828 36.651 42.6425 37.7954 40.9812 37.8582C38.2734 37.8662 36.0223 39.8299 35.5901 42.3957C33.7065 42.3239 32.421 43.834 32.5559 45.6546H31.7961C31.3107 45.6546 30.9172 46.0481 30.9172 46.5335V50.8192C24.016 53.7491 16.1056 52.2542 10.3974 47.188L12.1569 44.3293C12.5762 43.648 11.8995 42.7858 11.1381 43.0324L7.54944 44.1924C-0.176719 34.8833 -0.115664 18.9043 7.70565 9.6815L11.8939 11.0354C12.6554 11.2816 13.3322 10.4199 12.9127 9.73845L10.8928 6.45674C11.7131 5.77658 12.5758 5.16076 13.4652 4.62088C14.4365 4.0312 13.5245 2.5285 12.5531 3.11831C11.3694 3.83678 10.2304 4.67865 9.16791 5.62061C8.84846 5.90373 8.77873 6.37541 9.00244 6.73892L10.1661 8.62951L7.68163 7.82642C7.34389 7.71732 6.97381 7.82185 6.74331 8.0915C2.39484 13.1771 0 19.9043 0 27.034C0 34.0602 2.33507 40.7168 6.57526 45.7778C6.80506 46.0522 7.17831 46.1598 7.51932 46.0496L9.41025 45.4384L8.51811 46.8879C8.2992 47.2435 8.36084 47.7042 8.66565 47.9898C14.7269 53.7194 23.2967 55.6371 30.9172 52.7103V55.394C30.9172 57.9338 32.9834 60.0002 35.5233 60.0002H55.3938C57.9336 60.0002 60 57.9338 60 55.394V46.5336C59.9999 46.0481 59.6064 45.6547 59.121 45.6547ZM40.9977 39.6162C43.5294 39.6162 45.2565 37.5526 45.9546 35.3053C47.6298 35.6246 48.8915 37.0465 48.959 38.7717C48.9774 39.2434 49.3651 39.6163 49.8372 39.6163C51.6024 39.5777 53.1223 40.7736 53.5325 42.396H37.3845C37.7914 40.8007 39.2568 39.6162 40.9977 39.6162ZM34.3137 45.1384C34.3137 44.5955 34.7555 44.1537 35.2984 44.1537C42.0664 44.2284 48.8508 44.2394 55.6186 44.1537C56.4381 44.1537 56.7001 45.0008 56.6033 45.6547H34.3137V45.1384ZM32.675 55.3939V47.4124H37.8899C35.7075 50.561 35.7075 55.0938 37.8899 58.2423H35.5232C33.9528 58.2424 32.675 56.9646 32.675 55.3939ZM58.2421 55.3939C58.2421 56.9645 56.9644 58.2423 55.3937 58.2423H53.0227C53.6046 57.3734 54.0459 56.4152 54.3237 55.405C54.597 54.2756 52.9712 53.8285 52.6287 54.9392C52.2913 56.1665 51.6592 57.3017 50.7919 58.2424H40.1246C37.3128 55.314 37.3129 50.3409 40.1246 47.4125H50.792C51.6703 48.3649 52.3067 49.5146 52.641 50.7581C52.9768 51.8703 54.6056 51.433 54.3384 50.3017C54.0618 49.2724 53.6156 48.2963 53.0234 47.4125H58.2421V55.3939Z" fill="#FF914D"/>
<path d="M48.5068 51.9484H42.4105C41.2504 51.9835 41.2475 53.6701 42.4105 53.7062H48.5068C48.9922 53.7062 49.3857 53.3127 49.3857 52.8273C49.3857 52.3419 48.9922 51.9484 48.5068 51.9484Z" fill="#FF914D"/>
</svg>
