<svg width="44" height="54" viewBox="0 0 44 54" fill="none" xmlns="http://www.w3.org/2000/svg">
<path d="M6.43623 0.437561C4.44742 0.437561 2.88457 1.15843 1.9366 2.29594C0.988623 3.43355 0.657756 4.86874 0.657756 6.21598C0.660297 6.85374 1.17931 7.36875 1.81706 7.3663H13.3582V9.67808H1.81706C1.77734 9.67602 1.73729 9.67602 1.69752 9.67808C0.15864 9.75887 0.27818 12.0683 1.81706 11.9877H13.3582V14.2973H1.81706C1.77734 14.2952 1.73729 14.2952 1.69752 14.2973C0.15864 14.3781 0.27818 16.6875 1.81706 16.6068H13.3582V18.9187H1.81706C1.77734 18.9166 1.73729 18.9166 1.69752 18.9187C0.158697 18.9995 0.278236 21.3089 1.81706 21.2282H13.3582V23.5378H1.81706C1.77734 23.5357 1.73729 23.5357 1.69752 23.5378C0.15864 23.6186 0.27818 25.9281 1.81706 25.8474H13.3582V28.1502H1.81706C1.17578 28.1479 0.655312 28.6682 0.657756 29.3095C0.657756 30.6568 0.988616 32.0852 1.9366 33.2228C2.88457 34.3604 4.44742 35.0813 6.43623 35.0813C10.313 35.0813 11.8969 35.8951 12.6004 36.7864C13.3038 37.6777 13.3582 39.0496 13.3582 40.7063V42.01C11.7313 42.01 10.4096 42.861 9.6931 43.9971C8.97661 45.1331 8.74581 46.476 8.74581 47.7817C8.74581 49.0874 8.97658 50.4393 9.6931 51.5753C10.4096 52.7115 11.7313 53.5625 13.3582 53.5625H16.8271C18.3668 53.5625 19.6423 52.7127 20.384 51.6002C21.1256 50.4877 21.4485 49.129 21.4485 47.7817V4.47709C21.4485 2.25795 19.6259 0.437561 17.4068 0.437561H6.43623ZM26.0767 0.437561C24.5366 0.437561 24.5366 2.74707 26.0767 2.74707H34.167V5.05668H26.0767C24.5366 5.05668 24.5366 7.3663 26.0767 7.3663H34.167V9.67808H26.0767C26.0396 9.67638 26.0031 9.67638 25.9662 9.67808C24.4267 9.75284 24.5373 12.0621 26.0767 11.9877H34.167V14.2973H26.0767C26.0396 14.2955 26.0031 14.2955 25.9662 14.2973C24.4267 14.3721 24.5373 16.6813 26.0767 16.6068H34.167V18.9187H26.0767C26.0396 18.9169 26.0031 18.9169 25.9662 18.9187C24.4268 18.9935 24.5374 21.3028 26.0767 21.2282H34.167V23.5378H26.0767C26.0396 23.5361 26.0031 23.5361 25.9662 23.5378C24.4267 23.6126 24.5373 25.9219 26.0767 25.8474H34.167V28.1502H26.6564C26.0186 28.1528 25.5037 28.6718 25.5061 29.3095C25.5061 31.7634 25.9775 33.3967 27.2022 34.2873C28.4269 35.178 29.8343 35.0813 31.2778 35.0813C31.9583 35.0813 32.3114 35.2981 32.71 35.7962C33.1086 36.2941 33.4589 37.1247 33.6889 38.1329C34.1489 40.1493 34.167 42.7848 34.167 44.7143C33.0029 45.6866 31.8593 46.8029 31.8574 48.3614C31.8574 51.2177 34.1909 53.5625 37.0472 53.5625C39.9035 53.5625 42.2483 51.2177 42.2483 48.3614C42.2483 42.6047 42.2467 36.346 42.2483 30.4599C42.2483 27.5235 42.518 26.2214 42.8099 24.501C43.1018 22.7806 43.3986 20.7036 43.3986 16.6068C43.3986 12.0214 43.1191 8.22996 42.4265 5.4491C42.0802 4.05867 41.6424 2.91805 40.9875 2.02312C40.3326 1.12826 39.3517 0.471081 38.2426 0.437561C34.1903 0.437561 30.1314 0.437561 26.0767 0.437561ZM6.43623 2.74707H17.4068C18.3864 2.74707 19.1389 3.49754 19.1389 4.47709V47.7817C19.1389 48.7441 18.8777 49.7017 18.4646 50.3214C18.0514 50.9412 17.597 51.2506 16.8271 51.2506H13.3582C12.4261 51.2506 12.0223 50.9441 11.6463 50.3485C11.2704 49.7524 11.0486 48.7856 11.0486 47.7817C11.0486 46.7778 11.2704 45.8201 11.6463 45.224C12.0222 44.6279 12.4261 44.3219 13.3582 44.3219H14.5175C15.1526 44.3193 15.6665 43.8044 15.6678 43.1693V40.7063C15.6678 39.0496 15.7335 37.0302 14.416 35.3609C13.0986 33.6917 10.643 32.7695 6.43623 32.7695C4.96066 32.7695 4.2049 32.3427 3.70938 31.7477C3.44773 31.4338 3.44028 30.903 3.31694 30.4599H14.5175C15.1517 30.4573 15.6653 29.9438 15.6678 29.3095V6.21598C15.6702 5.57826 15.1553 5.05927 14.5175 5.05668H3.31694C3.44037 4.61685 3.44934 4.08996 3.70938 3.7779C4.2049 3.18326 4.96066 2.74707 6.43623 2.74707ZM36.4766 2.74707H38.1727C38.5072 2.75416 38.7464 2.875 39.12 3.38538C39.4936 3.89586 39.8813 4.79309 40.1846 6.01074C40.7911 8.44602 41.098 12.1194 41.098 16.6068C41.098 20.5936 40.8197 22.4351 40.5342 24.1175C40.2487 25.7999 39.9387 27.3758 39.9387 30.4599C39.9371 36.3469 39.9387 42.6051 39.9387 48.3614C39.9387 49.9695 38.6554 51.2506 37.0472 51.2506C35.4391 51.2506 34.167 49.9695 34.167 48.3614C34.1683 47.2448 34.8024 46.2394 35.8113 45.7608C36.2174 45.5709 36.4768 45.1627 36.4766 44.7143C36.4766 42.7848 36.4904 40.0338 35.9398 37.621C35.6646 36.4146 35.2548 35.2702 34.5166 34.3482C33.7785 33.4263 32.6182 32.7695 31.2778 32.7695C29.8343 32.7695 28.9299 32.6773 28.5667 32.4133C28.3384 32.2475 28.243 31.2207 28.0976 30.4601H35.3173C35.9551 30.4625 36.4741 29.9475 36.4766 29.3098V2.74707ZM14.398 46.6315C12.8925 46.7413 13.0087 48.9868 14.5175 48.941H15.6678C17.2411 48.9764 17.2411 46.5975 15.6678 46.6315H14.5175C14.4777 46.6294 14.4378 46.6294 14.398 46.6315H14.398Z" fill="#FF914D"/>
</svg>
