<svg width="60" height="60" viewBox="0 0 60 60" fill="none" xmlns="http://www.w3.org/2000/svg">
<path d="M11.8501 41.3399C11.6799 41.3399 11.5166 41.4075 11.3962 41.5279C11.2758 41.6483 11.2082 41.8115 11.2082 41.9818V43.9075C11.2082 44.0778 11.2758 44.241 11.3962 44.3614C11.5166 44.4818 11.6799 44.5494 11.8501 44.5494C12.0204 44.5494 12.1836 44.4818 12.304 44.3614C12.4244 44.241 12.492 44.0778 12.492 43.9075V41.9818C12.492 41.8115 12.4244 41.6483 12.304 41.5279C12.1836 41.4075 12.0204 41.3399 11.8501 41.3399Z" fill="#FF914D"/>
<path d="M19.5528 41.3399C19.3826 41.3399 19.2193 41.4075 19.0989 41.5279C18.9785 41.6483 18.9109 41.8115 18.9109 41.9818V43.9075C18.9109 44.0778 18.9785 44.241 19.0989 44.3614C19.2193 44.4818 19.3826 44.5494 19.5528 44.5494C19.723 44.5494 19.8863 44.4818 20.0067 44.3614C20.1271 44.241 20.1947 44.0778 20.1947 43.9075V41.9818C20.1947 41.8115 20.1271 41.6483 20.0067 41.5279C19.8863 41.4075 19.723 41.3399 19.5528 41.3399Z" fill="#FF914D"/>
<path d="M0.9375 28.2577C0.9375 28.2577 2.18281 31.2554 4.33322 32.2183C4.00396 32.3652 3.64745 32.4411 3.2869 32.4411C2.92635 32.4411 2.56984 32.3652 2.24058 32.2183C2.66133 33.1872 3.37523 33.9999 4.28187 34.542C4.08477 34.625 3.87307 34.6677 3.65921 34.6677C3.44536 34.6677 3.23366 34.625 3.03656 34.542C4.09307 35.6721 4.89816 37.0132 5.3988 38.4769C5.46941 38.6888 5.55286 38.8942 5.64273 39.1189H5.5657C5.27798 39.1189 5.00205 39.2331 4.7986 39.4366C4.59516 39.64 4.48086 39.916 4.48086 40.2037V43.9075C4.48484 44.6024 4.73863 45.2727 5.1959 45.796C5.65316 46.3192 6.28339 46.6606 6.97149 46.7576C7.60784 48.3297 8.81351 49.6042 10.348 50.3267C11.0461 50.64 11.762 50.9122 12.4919 51.1419C12.8065 51.2446 13.1339 51.3345 13.4677 51.4115V52.6953C13.4665 52.8797 13.3958 53.0569 13.2696 53.1914C13.1434 53.3258 12.9712 53.4077 12.7872 53.4207L8.29383 53.7224C7.59954 53.7664 6.94796 54.0727 6.47116 54.5793C5.99437 55.0859 5.72804 55.7548 5.72617 56.4505V59.0182H25.6255V56.4505C25.6236 55.7548 25.3573 55.0859 24.8805 54.5793C24.4037 54.0727 23.7521 53.7664 23.0578 53.7224L18.5644 53.4207C18.3805 53.4077 18.2082 53.3258 18.0821 53.1914C17.9559 53.0569 17.8852 52.8797 17.884 52.6953V51.4115C18.2242 51.3345 18.5259 51.2446 18.8597 51.1419C19.6071 50.9141 20.3402 50.6419 21.0551 50.3267C22.5908 49.6114 23.8009 48.344 24.4444 46.7769C25.1357 46.6793 25.7686 46.3352 26.2263 45.808C26.6839 45.2807 26.9356 44.6057 26.935 43.9075V40.1844C26.935 39.8967 26.8207 39.6208 26.6173 39.4173C26.4138 39.2139 26.1379 39.0996 25.8502 39.0996H25.7731C26.0535 38.4308 26.2685 37.7364 26.415 37.0262C28.4499 25.2471 22.6791 26.5181 22.6791 26.5181C21.8241 25.5115 20.752 24.7119 19.5435 24.1793C18.3349 23.6467 17.0213 23.3951 15.7015 23.4433C11.2851 23.668 7.99855 24.8042 5.50792 24.0082C5.96788 24.623 6.54356 25.142 7.20258 25.536C7.20258 25.536 4.03152 26.8968 1.20068 25.4268C1.20068 25.4268 2.33687 27.9945 3.98017 28.8803C3.98017 28.8803 1.99666 28.9381 0.9375 28.2577ZM18.5901 54.0498L19.5016 54.1075C19.3091 54.6403 18.5195 56.2002 15.7015 56.2451C12.8835 56.29 12.0811 54.6532 11.9014 54.114L12.8129 54.0498C13.1598 54.0255 13.4847 53.8712 13.7228 53.6177C13.9608 53.3642 14.0943 53.0302 14.0967 52.6825V51.5399L14.5076 51.5848H14.7836C15.3942 51.6426 16.0089 51.6426 16.6194 51.5848H16.889L17.3063 51.5399V52.6825C17.3087 53.0302 17.4422 53.3642 17.6803 53.6177C17.9183 53.8712 18.2432 54.0255 18.5901 54.0498ZM26.2931 40.178V43.9075C26.2896 44.476 26.0713 45.0221 25.682 45.4364C25.2927 45.8507 24.7612 46.1025 24.194 46.1414H23.995L23.918 46.334C23.355 47.827 22.2309 49.0409 20.7855 49.7168C20.1122 50.025 19.4221 50.295 18.7185 50.5257C18.34 50.6518 17.9541 50.7547 17.5631 50.8338C17.2357 50.898 16.9211 50.9429 16.5809 50.975C15.6652 51.0596 14.7421 51.012 13.84 50.8338C13.4516 50.7546 13.068 50.6539 12.6909 50.5321C11.9882 50.2965 11.2983 50.0244 10.624 49.7168C9.17857 49.0409 8.05447 47.827 7.49144 46.334L7.41441 46.1414H7.21541C6.64711 46.1041 6.11402 45.8529 5.7234 45.4385C5.33277 45.024 5.11358 44.477 5.10994 43.9075V40.1844C5.10994 40.1263 5.12139 40.0687 5.14365 40.0149C5.16591 39.9612 5.19854 39.9124 5.23967 39.8712C5.28079 39.8301 5.32962 39.7975 5.38336 39.7752C5.4371 39.753 5.49469 39.7415 5.55286 39.7415H5.8674L7.51711 44.2349L7.4465 42.0845L7.35663 39.4141L8.53776 35.4792C10.9084 35.8415 13.3033 36.0218 15.7015 36.0184C18.0997 36.0218 20.4946 35.8415 22.8653 35.4792L24.0464 39.4141L23.9565 42.0524L23.8859 44.2028L25.5356 39.7094H25.8502C25.9106 39.7093 25.9703 39.7216 26.0258 39.7454C26.0813 39.7693 26.1313 39.8042 26.1728 39.8481C26.2143 39.892 26.2463 39.9439 26.267 40.0006C26.2877 40.0574 26.2966 40.1177 26.2931 40.178Z" fill="#FF914D"/>
<path d="M39.6009 36.4513C39.3833 36.4513 39.1746 36.5377 39.0208 36.6916C38.8669 36.8455 38.7805 37.0541 38.7805 37.2717V39.733C38.7805 39.9506 38.8669 40.1593 39.0208 40.3132C39.1746 40.467 39.3833 40.5535 39.6009 40.5535C39.8185 40.5535 40.0272 40.467 40.181 40.3132C40.3349 40.1593 40.4213 39.9506 40.4213 39.733V37.2717C40.4213 37.0541 40.3349 36.8455 40.181 36.6916C40.0272 36.5377 39.8185 36.4513 39.6009 36.4513Z" fill="#FF914D"/>
<path d="M49.4459 40.5535C49.6635 40.5535 49.8722 40.467 50.0261 40.3132C50.1799 40.1593 50.2664 39.9506 50.2664 39.733V37.2717C50.2664 37.0541 50.1799 36.8455 50.0261 36.6916C49.8722 36.5377 49.6635 36.4513 49.4459 36.4513C49.2283 36.4513 49.0196 36.5377 48.8658 36.6916C48.7119 36.8455 48.6255 37.0541 48.6255 37.2717V39.733C48.6255 39.9506 48.7119 40.1593 48.8658 40.3132C49.0196 40.467 49.2283 40.5535 49.4459 40.5535Z" fill="#FF914D"/>
<path d="M30.3217 31.9799C30.4411 32.6034 30.7242 33.1839 31.1421 33.6618C30.868 33.753 30.6294 33.9279 30.4601 34.162C30.2908 34.3961 30.1993 34.6774 30.1986 34.9663V39.733C30.2048 40.6204 30.5283 41.4763 31.1107 42.1459C31.693 42.8156 32.4957 43.2547 33.3737 43.384C34.0795 45.0866 35.3057 46.5225 36.8769 47.4862C37.8722 48.1608 38.9855 48.6423 40.1587 48.9055L40.4458 49.0122C40.8547 49.1482 41.2711 49.2605 41.6929 49.3485V50.9894C41.6914 51.2251 41.601 51.4515 41.4398 51.6234C41.2785 51.7953 41.0583 51.9 40.8232 51.9165L35.0802 52.3021C34.1942 52.3582 33.3626 52.7486 32.7534 53.3944C32.1442 54.0401 31.8029 54.893 31.7984 55.7808V59.0625H57.2319V55.7808C57.2275 54.893 56.8861 54.0401 56.277 53.3944C55.6678 52.7486 54.8362 52.3582 53.9502 52.3021L48.2071 51.9165C47.972 51.9 47.7519 51.7953 47.5906 51.6234C47.4294 51.4515 47.339 51.2251 47.3375 50.9894V49.3485C47.7738 49.2513 48.204 49.128 48.6256 48.9793L48.9209 48.8727C50.0789 48.6104 51.1779 48.1346 52.1616 47.4697C53.7439 46.5122 54.9796 45.0753 55.6895 43.3676C56.5677 43.2423 57.3721 42.8071 57.9574 42.1405C58.5427 41.474 58.8703 40.62 58.881 39.733V34.9745C58.8801 34.7394 58.8193 34.5083 58.7045 34.303C58.5897 34.0978 58.4246 33.9251 58.2247 33.8013C58.3324 33.4997 58.4147 33.1896 58.4708 32.8742C58.6069 32.5906 58.7035 32.2897 58.7579 31.9799C59.4307 27.9106 60.3988 15.12 44.5234 15.12C28.648 15.12 29.6161 27.9106 30.3217 31.9799ZM50.2664 33.99C51.7507 34.2565 53.1775 34.7784 54.4835 35.5324C55.066 44.1142 52.1616 46.5591 49.6511 47.2482L49.085 44.4587C49.0065 44.1275 48.8325 43.8265 48.5846 43.5931C48.3367 43.3598 48.0257 43.2043 47.6903 43.1461L44.5234 42.6046L41.3565 43.1461C41.0211 43.2043 40.7101 43.3598 40.4622 43.5931C40.2143 43.8265 40.0403 44.1275 39.9618 44.4587L39.4039 47.199C36.7621 46.3786 33.6608 43.6793 34.6782 33.99L35.3017 32.2015L35.4986 33.99L37.1395 30.7083C37.1395 30.7083 41.2417 33.99 44.5234 33.99L43.703 32.3491C46.1668 34.0261 48.9666 35.146 51.9073 35.6309L50.2664 33.99ZM46.5745 47.519C46.1465 47.5532 45.718 47.4589 45.3438 47.2482C45.2568 46.8897 45.2568 46.5156 45.3438 46.1571L45.0977 46.1981C44.7184 46.272 44.3284 46.272 43.9491 46.1981L43.703 46.1571C43.79 46.5156 43.79 46.8897 43.703 47.2482C43.3359 47.4542 42.9167 47.5483 42.4969 47.519C42.1769 47.519 41.5862 47.519 40.856 47.4697C40.8034 47.3719 40.786 47.2589 40.8068 47.1498L41.053 45.3202C41.1097 44.9971 41.257 44.6968 41.4778 44.4543C41.6985 44.2117 41.9837 44.0369 42.3 43.9501L43.022 43.7532C44.0046 43.4825 45.0422 43.4825 46.0248 43.7532L46.7468 43.9501C47.0631 44.0369 47.3482 44.2117 47.569 44.4543C47.7898 44.6968 47.9371 44.9971 47.9938 45.3202L48.24 47.1498C48.2631 47.2651 48.2426 47.385 48.1825 47.4862C47.477 47.5354 46.8944 47.4944 46.5745 47.519ZM30.9862 39.733V34.9745C30.9862 34.9002 31.0009 34.8266 31.0293 34.7579C31.0578 34.6892 31.0995 34.6268 31.152 34.5742C31.2046 34.5217 31.267 34.48 31.3357 34.4515C31.4044 34.4231 31.478 34.4084 31.5523 34.4084H33.0373C32.8978 36.0493 32.5532 39.4295 33.4885 42.5553C32.8017 42.4646 32.1706 42.1293 31.711 41.6109C31.2514 41.0925 30.9941 40.4258 30.9862 39.733ZM48.2153 52.7041L49.3886 52.7862C49.1424 53.4589 48.1333 55.4526 44.5316 55.51C40.9299 55.5674 39.9043 53.4835 39.6746 52.7862L40.8478 52.7041C41.2919 52.675 41.7083 52.4784 42.0129 52.154C42.3175 51.8296 42.4876 51.4016 42.4887 50.9566V49.4798C43.8474 49.6985 45.2322 49.6985 46.5909 49.4798V50.9484C46.5916 51.3894 46.7582 51.8141 47.0577 52.1379C47.3571 52.4617 47.7675 52.6609 48.2071 52.6959L48.2153 52.7041ZM58.0606 34.9745V39.733C58.0542 40.4197 57.8026 41.0814 57.3513 41.5989C56.9 42.1164 56.2786 42.4556 55.5993 42.5553C56.0922 40.7695 56.3026 38.9175 56.2228 37.0666C56.9109 36.3375 57.4836 35.5074 57.9211 34.6053C58.0092 34.7052 58.0586 34.8332 58.0606 34.9663V34.9745Z" fill="#FF914D"/>
<path d="M43.5625 45.0156L44.5313 44.5312L45.5 45.0156L44.5313 45.5L43.5625 45.0156Z" stroke="#FF914D"/>
</svg>
