<svg width="43" height="60" viewBox="0 0 43 60" fill="none" xmlns="http://www.w3.org/2000/svg">
<path d="M36.9348 15.7599C32.8966 14.2731 27.4194 13.3664 21.3621 13.3664C15.3049 13.3664 9.62571 14.3062 5.57284 15.8407C4.7285 15.4809 4.14847 14.7137 4.02365 13.8069C3.86579 14.9486 4.49355 16.0756 5.57284 16.5125C9.62571 14.978 15.1984 14.0382 21.3621 14.0382C27.5259 14.0382 32.8966 14.945 36.9348 16.4317C37.904 15.9472 38.4693 14.8825 38.3115 13.8033C38.2013 14.6476 37.6837 15.3671 36.9348 15.7599Z" fill="#FF914D"/>
<path d="M21.3622 24.5668H20.5472C18.106 24.6329 16.1493 26.5896 15.9731 29.0309V29.7357C16.1493 27.2944 18.106 25.3378 20.5472 25.0477H21.3622C23.8035 25.3378 25.7602 27.2944 25.6096 29.7357V29.0309C25.7602 26.5896 23.7888 24.6329 21.3622 24.6182V24.5668Z" fill="#FF914D"/>
<path d="M21.2998 60C15.5729 60 10.1875 57.0594 6.16763 51.707C2.19186 46.4317 0.000224763 39.4236 0.000224763 31.975C-0.0144595 27.812 0.690386 23.7114 2.11109 19.7834L2.23591 19.4383L2.58099 19.3135C8.3409 17.1365 14.9268 15.9948 21.6118 15.9948C28.0105 15.9948 34.3358 17.0594 39.9378 19.0638L40.2829 19.1886L40.4077 19.5337C41.8945 23.5389 42.6287 27.7349 42.614 31.9897C42.614 39.4236 40.4224 46.4354 36.4466 51.7217C32.4121 57.0411 27.0267 60 21.2998 60ZM3.45837 20.6424C2.19185 24.2878 1.54942 28.1057 1.5641 31.9566C1.5641 46.5565 10.4224 58.4177 21.2961 58.4177C32.1698 58.4177 41.0281 46.5418 41.0281 31.9566C41.0428 28.0139 40.371 24.1336 39.0421 20.3928C33.7043 18.5315 27.6801 17.544 21.5935 17.544C15.2278 17.544 8.96865 18.6233 3.45837 20.6424Z" fill="#FF914D"/>
<path d="M21.377 42.3898H20.6905C17.8198 42.3898 15.496 40.0624 15.496 37.1952V28.3186C15.496 25.4478 17.8234 23.124 20.6905 23.124H21.377C24.2478 23.124 26.5716 25.4515 26.5716 28.3186V37.1952C26.5716 40.0624 24.2441 42.3898 21.377 42.3898ZM16.9387 28.1974V36.8318C16.9387 38.8362 18.565 40.4625 20.5694 40.4625H21.4982C23.5026 40.4625 25.1289 38.8362 25.1289 36.8318V28.1974C25.1289 26.193 23.5026 24.5668 21.4982 24.5668H20.5694C18.565 24.5668 16.9387 26.193 16.9387 28.1974Z" fill="#FF914D"/>
<path d="M20.8447 39.343C18.9651 39.343 17.4489 37.8268 17.4489 35.9472C17.4489 34.0676 18.9651 32.5515 20.8447 32.5515C22.7242 32.5515 24.2404 34.0676 24.2404 35.9472C24.2441 37.8268 22.7242 39.343 20.8447 39.343ZM20.8447 34.1337C19.8278 34.1337 19.0128 34.9487 19.0128 35.9656C19.0128 36.9825 19.8278 37.7974 20.8447 37.7974C21.8615 37.7974 22.6765 36.9825 22.6765 35.9656C22.6765 34.945 21.8652 34.1337 20.8447 34.1337ZM5.35273 17.6689L5.07005 17.5441C3.52086 16.887 2.6655 15.1726 3.1611 13.4729C3.58327 12.0265 4.98195 11.083 6.49076 11.083H35.573C36.8395 11.083 37.9996 11.7879 38.5759 12.9149C39.4203 14.5742 38.7632 16.608 37.1038 17.4377L36.8065 17.5955L36.4944 17.4707C32.3314 15.9362 27.0414 15.1249 21.1897 15.1249C15.3197 15.1249 9.7984 15.9839 5.68312 17.5515L5.35273 17.6689ZM6.36961 12.5258C5.38209 12.5258 4.57079 13.3408 4.57079 14.3246C4.57079 14.9524 4.90118 15.5287 5.41513 15.8408C9.66991 14.2916 15.2426 13.4472 21.1567 13.4472C27.0084 13.4472 32.3608 14.2438 36.6339 15.7637C37.3241 15.246 37.559 14.2916 37.1516 13.5096C36.8542 12.9149 36.2118 12.5221 35.5546 12.5221L6.36961 12.5258ZM34.1082 10.5985H7.86741C6.8028 10.5985 5.69046 9.75778 5.5216 8.70419C5.44083 8.20125 5.52527 7.70933 5.77123 7.29449L8.48782 2.50007C8.92468 1.74016 9.75434 1.28495 10.6758 1.28495V2.71667C10.3307 2.71667 10.0187 2.88921 9.86448 3.16087L7.14788 7.95529C7.08547 8.06909 7.05243 8.19758 7.05243 8.32607C7.05243 8.78495 7.45992 9.15573 7.95919 9.15573H34.1082C34.2477 9.15573 34.3909 9.12636 34.4974 9.07129C34.7323 8.97217 34.8865 8.79963 34.9489 8.58304C35.026 8.37012 35.0113 8.15353 34.9012 7.95529L32.1993 3.14618C32.0414 2.87452 31.7294 2.70198 31.388 2.70198V1.27026C32.3094 1.27026 33.1538 1.72915 33.5759 2.48539L36.2925 7.29449C36.9166 8.4105 36.432 9.7688 35.2132 10.3415C34.9049 10.4957 34.5121 10.5985 34.1082 10.5985Z" fill="#FF914D"/>
<path d="M12.1221 0H13.5685V5.29736H12.1221V0ZM14.5304 0H15.9768V5.29736H14.5304V0ZM17.4195 0H18.8659V5.29736H17.4195V0ZM20.3086 0H21.755V5.29736H20.3086V0ZM23.2014 0H24.6478V5.29736H23.2014V0ZM25.6096 0H27.056V5.29736H25.6096V0ZM28.4988 0H29.9452V5.29736H28.4988V0Z" fill="#FF914D"/>
</svg>
