<svg width="60" height="60" viewBox="0 0 60 60" fill="none" xmlns="http://www.w3.org/2000/svg">
<path d="M10.3125 40.3125H8.4375C8.4375 44.2894 10.1334 48.0984 13.0894 50.7619C14.2341 51.7941 15.5128 52.6003 16.875 53.1975V60H18.75V53.8734C19.9509 54.2034 21.2006 54.3759 22.4784 54.3759C22.9856 54.3759 23.4966 54.3497 24.0103 54.2953C30.3263 53.6372 35.5472 48.5906 36.4238 42.2981C36.4688 41.9794 36.5016 41.6625 36.525 41.3466C36.7181 38.6878 37.1916 36.2578 37.9069 34.0837L50.58 34.6875C50.5959 34.6875 50.61 34.6875 50.625 34.6875C50.8659 34.6875 51.0975 34.5947 51.2719 34.4287C51.4575 34.2516 51.5625 34.0059 51.5625 33.75V22.5C51.5625 22.2441 51.4575 21.9984 51.2719 21.8212C51.0863 21.645 50.8472 21.5437 50.58 21.5634L42.9572 21.9263C43.1559 20.4619 43.1728 18.9881 42.9909 17.5303C42.045 9.91969 35.8228 3.77625 28.1953 2.92125C27.8578 2.88375 27.5241 2.87906 27.1884 2.86031V0H25.3134V2.8575C21.4978 3.06 17.9109 4.5075 15.0066 7.10531C11.4272 10.3041 9.375 14.8903 9.375 19.6875H11.25C11.25 15.4237 13.0744 11.3475 16.2553 8.50219C19.4794 5.61938 23.6428 4.30312 27.9862 4.785C34.7634 5.54437 40.29 11.0016 41.1309 17.7609C41.3053 19.1719 41.2809 20.5997 41.0569 22.0162L35.5753 22.2769C32.4487 22.4278 30 24.9956 30 28.125C30 29.1028 30.2391 30.0263 30.6637 30.8372C31.5975 32.6231 33.4266 33.8691 35.5753 33.9722L35.9522 33.99C35.28 36.18 34.845 38.6025 34.6556 41.2097C34.635 41.4834 34.6059 41.7581 34.5666 42.0384C33.8062 47.4891 29.2856 51.8606 23.8153 52.4316C20.3053 52.7934 16.9425 51.7097 14.3438 49.3697C11.7816 47.0606 10.3125 43.7597 10.3125 40.3125ZM35.6644 23.9419L41.8894 23.4375C41.8903 23.4375 41.8913 23.4375 41.8922 23.4375L49.6875 23.4834V32.7666L37.2797 31.875C37.2787 31.875 37.2778 31.875 37.2769 31.875L35.6644 31.9491C33.5391 31.8478 31.875 30.0722 31.875 27.9459C31.875 25.8197 33.5391 24.0431 35.6644 23.9419Z" fill="#FF914D"/>
<path d="M17.1497 34.9622C16.9734 35.1375 16.875 35.3756 16.875 35.625C16.875 38.7272 19.3978 41.25 22.5 41.25H25.3125V39.375H22.5C20.5575 39.375 18.9553 37.89 18.7688 35.9953L22.2263 32.5378C22.4016 32.3625 22.5 32.1244 22.5 31.875V25.3125C22.5 25.0988 22.4278 24.8934 22.2947 24.7266L18.7566 20.3034C18.9262 15.7997 22.6425 12.1875 27.1875 12.1875V10.3125C21.5016 10.3125 16.875 14.9391 16.875 20.625C16.875 20.8387 16.9472 21.0441 17.0803 21.2109L20.625 25.6416V31.4869L17.1497 34.9622Z" fill="#FF914D"/>
<path d="M55.3125 27.1875H53.4375V29.0625H55.3125V27.1875Z" fill="#FF914D"/>
<path d="M59.0625 27.1875H57.1875V29.0625H59.0625V27.1875Z" fill="#FF914D"/>
<path d="M59.0625 30.9375H57.1875V32.8125H59.0625V30.9375Z" fill="#FF914D"/>
<path d="M59.0625 23.4375H57.1875V25.3125H59.0625V23.4375Z" fill="#FF914D"/>
</svg>
