<svg width="35" height="54" viewBox="0 0 35 54" fill="none" xmlns="http://www.w3.org/2000/svg">
<path d="M22.9073 47.5377C22.4643 49.278 18.7133 48.6995 18.1587 48.5913V48.5748C18.1587 48.5748 18.143 48.5772 18.1155 48.5819C18.0882 48.5772 18.0724 48.5748 18.0724 48.5748V48.5913C17.5178 48.6995 13.7669 49.278 13.3236 47.5377C12.84 45.6374 12.6674 40.0447 13.7034 40.2516C14.7086 40.4515 16.9061 41.7262 18.1155 40.294C19.325 41.7262 21.5223 40.4515 22.5275 40.2516C23.5638 40.0447 23.3909 45.6374 22.9073 47.5377ZM30.402 34.1368C29.8493 34.6213 28.3987 35.0023 28.3987 35.0023C28.2606 36.3476 27.5699 38.7653 26.7409 39.3532C25.9121 39.9388 24.7378 37.6599 22.7693 36.6251C21.4045 35.9054 19.1298 36.6274 18.1155 37.1919C17.1013 36.6274 14.8266 35.9054 13.4618 36.6251C11.4931 37.6599 10.3191 39.9388 9.49004 39.3532C8.66125 38.7653 7.97051 36.3476 7.83246 35.0023C7.83246 35.0023 6.38184 34.6213 5.82915 34.1368C5.82915 34.1368 4.48225 40.4915 4.82773 43.6359C5.17205 46.7709 6.99825 53.6807 18.0724 53.7183V53.7207C18.0872 53.7207 18.1009 53.7183 18.1155 53.7183C18.1303 53.7183 18.1439 53.7207 18.1587 53.7207V53.7183C29.2329 53.6807 31.0591 46.7709 31.4034 43.6359C31.7489 40.4915 30.402 34.1368 30.402 34.1368Z" fill="#FF914D"/>
<path d="M14.7309 42.6952C14.5334 42.5164 13.8245 42.9798 14.3683 43.3937C14.9123 43.8076 16.7773 44.3862 19.2122 43.9299C19.2122 43.9299 15.8189 43.6783 14.7309 42.6952Z" fill="#FF914D"/>
<path d="M33.1908 26.6791C33.001 26.6885 32.7764 26.6791 32.7764 26.9543C32.7764 27.2294 32.9662 27.213 33.1908 27.2294C33.4152 27.2482 33.7607 27.1777 33.7778 27.8856C33.795 28.5959 33.5532 31.0465 32.7418 32.6011C31.9302 34.1556 31.1186 34.7412 31.3258 35.0705C31.533 35.3974 32.2755 34.2426 32.6381 33.6194C33.0008 32.9985 34.434 30.2186 34.2268 27.1777C34.2268 27.1777 34.1059 26.6273 33.1908 26.6791Z" fill="#FF914D"/>
<path d="M2.97143 27.6786C3.07632 27.6504 3.26494 27.4552 3.12665 27.1965C2.98859 26.9378 2.38417 26.3663 1.77974 26.418C1.17555 26.4698 0.726594 27.1259 0.726594 27.6269C0.726594 28.1278 0.605702 30.5455 1.84889 32.8245C3.09231 35.1058 3.61019 35.8466 3.69674 35.0187C3.69674 35.0187 2.47049 33.2055 2.02152 32.2389C1.57255 31.2722 0.778326 28.3701 1.24446 27.2482C1.24446 27.2482 1.81432 26.5215 2.24612 27.006C2.67769 27.4905 2.60878 27.7821 2.97143 27.6786Z" fill="#FF914D"/>
<path d="M2.36699 24.346C2.36699 24.346 4.38724 23.4476 4.81904 23.3112C4.81904 23.3112 2.91944 15.4537 10.4484 15.4537C10.4484 15.4537 14.4202 11.9212 21.9577 12.8549C29.4954 13.7862 30.9199 17.9325 31.1791 19.3554C31.438 20.7806 31.3084 23.5793 31.3084 23.5793L32.4481 23.8639C32.4481 23.8639 33.1993 18.9415 31.5676 16.8178C31.5676 16.8178 37.7323 7.44093 28.7959 1.50956C28.7959 1.50956 29.573 2.52085 29.4436 3.40045C29.4436 3.40045 27.9154 1.74239 25.9725 1.22498C25.9725 1.22498 26.6461 1.74239 26.6978 2.41502C26.6978 2.41502 24.3149 1.01802 23.5638 0.785189C22.8126 0.550003 21.5174 1.53543 20.4036 2.52086C19.2897 3.50393 17.5802 4.9809 15.2232 5.21373C12.8661 5.44656 9.31742 5.00676 7.37479 8.50397C7.37479 8.50397 3.10947 7.78665 1.14097 14.0732C-0.827764 20.3573 2.36699 24.346 2.36699 24.346Z" fill="#FF914D"/>
<path d="M19.3244 34.5695C19.603 34.466 19.4626 34.9505 18.91 35.1057C18.3573 35.261 17.1832 35.2939 16.5788 35.0187C15.9744 34.7412 16.7514 34.76 16.9415 34.76C17.1313 34.76 17.9257 35.0869 19.3244 34.5695Z" fill="#FF914D"/>
<path d="M12.2457 27.2365L10.9491 28.4735L11.476 26.7661C11.3083 26.7144 11.1337 26.6791 10.9491 26.6791C9.95735 26.6791 9.15326 27.4811 9.15326 28.4735C9.15326 29.466 9.95735 30.2704 10.9491 30.2704C11.9411 30.2704 12.745 29.466 12.745 28.4735C12.745 27.9938 12.5533 27.5587 12.2457 27.2365Z" fill="#FF914D"/>
<path d="M26.5438 27.2365L25.2475 28.4735L25.774 26.7661C25.6064 26.7144 25.4318 26.6791 25.2475 26.6791C24.2554 26.6791 23.4514 27.4811 23.4514 28.4735C23.4514 29.466 24.2554 30.2704 25.2475 30.2704C26.2392 30.2704 27.0431 29.466 27.0431 28.4735C27.0431 27.9938 26.8514 27.5587 26.5438 27.2365Z" fill="#FF914D"/>
</svg>
