<svg width="40" height="60" viewBox="0 0 40 60" fill="none" xmlns="http://www.w3.org/2000/svg">
<path d="M20.0478 30.8549C20.4441 30.8549 20.7654 30.5336 20.7654 30.1374C20.7654 29.7411 20.4441 29.4198 20.0478 29.4198C19.6515 29.4198 19.3303 29.7411 19.3303 30.1374C19.3303 30.5336 19.6515 30.8549 20.0478 30.8549Z" fill="#FF914D"/>
<path d="M3.81299 50.2625C4.83046 47.1681 7.63061 45.2985 10.0524 46.0974C12.4769 46.8906 13.6177 50.0607 12.6002 53.158C11.5828 56.2524 8.78262 58.1248 6.36087 57.326C5.37423 57.0064 4.5782 56.2861 4.05404 55.2462C3.33088 53.8083 3.24399 51.9948 3.81299 50.2625ZM23.1365 30.3392C24.0475 28.1276 28.5406 17.4372 30.6176 9.95609C32.9833 1.43231 32.5012 0.0812856 31.75 0L16.9616 30.3392C13.8952 36.9009 15.207 37.3017 12.006 39.9309C9.97388 41.6042 7.03078 43.1963 5.55082 44.3371C3.7289 45.3602 2.20129 47.1653 1.43889 49.4777C0.662471 51.8378 0.802619 54.3492 1.82289 56.3646C2.63855 57.9847 3.97556 59.1675 5.57885 59.6945C9.30958 60.9194 13.2337 58.2313 14.9715 53.9316C16.0815 51.1847 15.4032 43.6167 16.1208 40.9455C16.6029 39.1404 18.4192 36.87 20.0477 34.9388C21.1549 33.7419 22.2256 32.5507 23.1365 30.3392Z" fill="#FF914D"/>
<path d="M35.9461 55.2406C35.422 56.2805 34.6259 57.0008 33.6421 57.3204C31.2203 58.1164 28.423 56.244 27.3971 53.1524C26.3824 50.0579 27.5232 46.8906 29.945 46.0889C32.3667 45.2929 35.1669 47.1653 36.19 50.2597C36.759 51.9948 36.6749 53.8083 35.9461 55.2406ZM19.9553 34.9472C21.581 36.8756 23.4001 39.1488 23.8794 40.9567C24.5942 43.6279 23.9158 51.1875 25.0258 53.9372C26.7636 58.2341 30.6906 60.9278 34.4213 59.7029C36.0246 59.1759 37.3644 57.9959 38.1801 56.373C39.1975 54.352 39.3405 51.8434 38.5669 49.4861C37.8045 47.1709 36.2769 45.363 34.4577 44.3455C32.9778 43.2019 30.0319 41.6042 27.9969 39.9365C24.796 37.3073 26.1077 36.9065 23.0413 30.3448L8.25294 0C7.50175 0.0812856 7.02245 1.43231 9.38534 9.95609C11.4623 17.44 15.9555 28.1276 16.8664 30.3392C17.7774 32.5507 18.8481 33.7419 19.9553 34.9472Z" fill="#FF914D"/>
</svg>
