<svg width="28" height="49" viewBox="0 0 28 49" fill="none" xmlns="http://www.w3.org/2000/svg">
<path opacity="0.99" d="M0.667334 0C0.667334 0.001 0.667334 0 0.719001 0H27.2817C27.3267 0 27.3283 0.001 27.3333 0V1.66667H0.666668L0.667334 0ZM0.667334 3.33333H27.334V5H0.667334V3.33333ZM0.667334 6.66667H27.334V8.33333C27.334 8.33183 27.334 8.33333 27.2823 8.33333H0.719668C0.674668 8.33333 0.673001 8.33183 0.668001 8.33333L0.667334 6.66667ZM9.00067 10H19.0007V10.5599C19.0007 11.1471 18.4772 11.6667 17.7117 11.6667H10.2897C9.52417 11.6667 9.00067 11.1471 9.00067 10.5599V10ZM12.334 13.3333H15.6673V16.7106H14.0007H12.334V13.3333ZM14.0007 18.3331C15.837 18.3331 17.334 19.885 17.334 21.8978V23.9193C17.3348 24.1439 17.4257 24.3586 17.5878 24.5148C18.468 25.3689 19.0007 26.5134 19.0007 27.7928C19.0007 29.0723 18.4678 30.2171 17.5878 31.071C17.4262 31.2276 17.3348 31.4418 17.334 31.6665V34.9998C17.334 35.2256 17.4257 35.442 17.5878 35.599C18.468 36.453 19.0007 37.598 19.0007 38.877C19.0007 40.1871 18.4447 41.3553 17.5293 42.2133C17.2747 42.453 17.1967 42.8261 17.334 43.1478V44.7752C17.334 46.788 15.8372 48.3396 14.0007 48.3396C12.1642 48.3396 10.6673 46.788 10.6673 44.7752V43.1508C10.8057 42.8285 10.7273 42.4535 10.472 42.2133C9.55667 41.3553 9.00067 40.1871 9.00067 38.877C9.00067 37.598 9.53333 36.453 10.4135 35.599C10.5752 35.4423 10.6673 35.2256 10.6673 34.9998V31.6665C10.6665 31.4418 10.5757 31.2271 10.4135 31.071C9.5335 30.2171 9.00067 29.0723 9.00067 27.7928C9.00067 26.5134 9.53333 25.3689 10.4135 24.5148C10.5752 24.3581 10.6665 24.1439 10.6673 23.9193V21.8978C10.6673 19.885 12.1643 18.3331 14.0007 18.3331Z" fill="#FF914D"/>
</svg>
